ffmpeg version 4.4.2-0ubuntu0.22.04.1 Copyright (c) 2000-2021 the FFmpeg developers
  built with gcc 11 (Ubuntu 11.2.0-19ubuntu1)
  configuration: --prefix=/usr --extra-version=0ubuntu0.22.04.1 --toolchain=hardened --libdir=/usr/lib/x86_64-linux-gnu --incdir=/usr/include/x86_64-linux-gnu --arch=amd64 --enable-gpl --disable-stripping --enable-gnutls --enable-ladspa --enable-libaom --enable-libass --enable-libbluray --enable-libbs2b --enable-libcaca --enable-libcdio --enable-libcodec2 --enable-libdav1d --enable-libflite --enable-libfontconfig --enable-libfreetype --enable-libfribidi --enable-libgme --enable-libgsm --enable-libjack --enable-libmp3lame --enable-libmysofa --enable-libopenjpeg --enable-libopenmpt --enable-libopus --enable-libpulse --enable-librabbitmq --enable-librubberband --enable-libshine --enable-libsnappy --enable-libsoxr --enable-libspeex --enable-libsrt --enable-libssh --enable-libtheora --enable-libtwolame --enable-libvidstab --enable-libvorbis --enable-libvpx --enable-libwebp --enable-libx265 --enable-libxml2 --enable-libxvid --enable-libzimg --enable-libzmq --enable-libzvbi --enable-lv2 --enable-omx --enable-openal --enable-opencl --enable-opengl --enable-sdl2 --enable-pocketsphinx --enable-librsvg --enable-libmfx --enable-libdc1394 --enable-libdrm --enable-libiec61883 --enable-chromaprint --enable-frei0r --enable-libx264 --enable-shared
  libavutil      56. 70.100 / 56. 70.100
  libavcodec     58.134.100 / 58.134.100
  libavformat    58. 76.100 / 58. 76.100
  libavdevice    58. 13.100 / 58. 13.100
  libavfilter     7.110.100 /  7.110.100
  libswscale      5.  9.100 /  5.  9.100
  libswresample   3.  9.100 /  3.  9.100
  libpostproc    55.  9.100 / 55.  9.100
Input #0, png_pipe, from 'visuals/wheel_t1_0.png':
  Duration: N/A, bitrate: N/A
  Stream #0:0: Video: png, rgba(pc), 1800x1800 [SAR 11811:11811 DAR 1:1], 25 fps, 25 tbr, 25 tbn, 25 tbc
[mp3 @ 0x5e4df5377500] Estimating duration from bitrate, this may be inaccurate
Input #1, mp3, from 'audio/section_3.mp3':
  Duration: 00:00:55.39, start: 0.000000, bitrate: 48 kb/s
  Stream #1:0: Audio: mp3, 24000 Hz, mono, fltp, 48 kb/s
Stream mapping:
  Stream #0:0 -> #0:0 (png (native) -> h264 (libx264))
  Stream #1:0 -> #0:1 (mp3 (mp3float) -> aac (native))
[swscaler @ 0x5e4df547e180] Warning: data is not aligned! This can lead to a speed loss
[libx264 @ 0x5e4df538ff40] using SAR=1/1
[libx264 @ 0x5e4df538ff40] using cpu capabilities: MMX2 SSE2Fast SSSE3 SSE4.2 AVX FMA3 BMI2 AVX2
[libx264 @ 0x5e4df538ff40] profile High, level 4.0, 4:2:0, 8-bit
[libx264 @ 0x5e4df538ff40] 264 - core 163 r3060 5db6aa6 - H.264/MPEG-4 AVC codec - Copyleft 2003-2021 - http://www.videolan.org/x264.html - options: cabac=1 ref=3 deblock=1:-3:-3 analyse=0x3:0x113 me=hex subme=7 psy=1 psy_rd=2.00:0.70 mixed_ref=1 me_range=16 chroma_me=1 trellis=1 8x8dct=1 cqm=0 deadzone=21,11 fast_pskip=1 chroma_qp_offset=-4 threads=3 lookahead_threads=1 sliced_threads=0 nr=0 decimate=1 interlaced=0 bluray_compat=0 constrained_intra=0 bframes=3 b_pyramid=2 b_adapt=1 b_bias=0 direct=1 weightb=1 open_gop=0 weightp=2 keyint=250 keyint_min=25 scenecut=40 intra_refresh=0 rc_lookahead=40 rc=crf mbtree=1 crf=23.0 qcomp=0.60 qpmin=0 qpmax=69 qpstep=4 ip_ratio=1.40 aq=1:1.20
[aac @ 0x5e4df5391bc0] Too many bits 8192.000000 > 6144 per frame requested, clamping to max
Output #0, mp4, to 'seg3.mp4':
  Metadata:
    encoder         : Lavf58.76.100
  Stream #0:0: Video: h264 (avc1 / 0x31637661), yuv420p(tv, progressive), 1920x1080 [SAR 1:1 DAR 16:9], q=2-31, 25 fps, 12800 tbn
    Metadata:
      encoder         : Lavc58.134.100 libx264
    Side data:
      cpb: bitrate max/min/avg: 0/0/0 buffer size: 0 vbv_delay: N/A
  Stream #0:1: Audio: aac (LC) (mp4a / 0x6134706D), 24000 Hz, mono, fltp, 144 kb/s
    Metadata:
      encoder         : Lavc58.134.100 aac
frame=    1 fps=0.0 q=0.0 size=       0kB time=00:00:00.00 bitrate=N/A speed=   0x    frame=   19 fps=0.0 q=0.0 size=       0kB time=00:00:00.00 bitrate=N/A speed=   0x    frame=   35 fps= 31 q=0.0 size=       0kB time=00:00:00.00 bitrate=N/A speed=   0x    frame=   47 fps= 28 q=0.0 size=       0kB time=00:00:00.00 bitrate=N/A speed=   0x    frame=   56 fps= 25 q=28.0 size=       0kB time=00:00:00.25 bitrate=   1.5kbits/s speed=0.113x    frame=   69 fps= 25 q=28.0 size=       0kB time=00:00:00.76 bitrate=   0.5kbits/s speed=0.272x    frame=   84 fps= 25 q=28.0 size=       0kB time=00:00:01.36 bitrate=   0.3kbits/s speed=0.409x    [mp3float @ 0x5e4df5378400] overread, skip -6 enddists: -5 -5
frame=   99 fps= 26 q=28.0 size=       0kB time=00:00:01.96 bitrate=   0.2kbits/s speed=0.507x    frame=  115 fps= 26 q=28.0 size=       0kB time=00:00:02.60 bitrate=   0.1kbits/s speed=0.594x    frame=  128 fps= 26 q=28.0 size=       0kB time=00:00:03.15 bitrate=   0.1kbits/s speed=0.646x    frame=  144 fps= 27 q=28.0 size=       0kB time=00:00:03.76 bitrate=   0.1kbits/s speed=0.694x    frame=  158 fps= 27 q=28.0 size=       0kB time=00:00:04.32 bitrate=   0.1kbits/s speed=0.728x    [mp3float @ 0x5e4df5378400] overread, skip -5 enddists: -3 -3
frame=  173 fps= 27 q=28.0 size=       0kB time=00:00:04.92 bitrate=   0.1kbits/s speed=0.762x    frame=  188 fps= 27 q=28.0 size=       0kB time=00:00:05.52 bitrate=   0.1kbits/s speed=0.791x    frame=  202 fps= 27 q=28.0 size=       0kB time=00:00:06.08 bitrate=   0.1kbits/s speed=0.813x    frame=  217 fps= 27 q=28.0 size=       0kB time=00:00:06.68 bitrate=   0.1kbits/s speed=0.836x    frame=  232 fps= 27 q=28.0 size=       0kB time=00:00:07.28 bitrate=   0.1kbits/s speed=0.854x    frame=  247 fps= 27 q=28.0 size=       0kB time=00:00:07.88 bitrate=   0.0kbits/s speed=0.872x    frame=  262 fps= 27 q=28.0 size=       0kB time=00:00:08.48 bitrate=   0.0kbits/s speed=0.89x    frame=  276 fps= 27 q=28.0 size=       0kB time=00:00:09.04 bitrate=   0.0kbits/s speed=0.901x    frame=  291 fps= 28 q=28.0 size=       0kB time=00:00:09.64 bitrate=   0.0kbits/s speed=0.913x    frame=  305 fps= 28 q=28.0 size=       0kB time=00:00:10.24 bitrate=   0.0kbits/s speed=0.925x    frame=  320 fps= 28 q=28.0 size=       0kB time=00:00:10.83 bitrate=   0.0kbits/s speed=0.936x    frame=  335 fps= 28 q=28.0 size=       0kB time=00:00:11.40 bitrate=   0.0kbits/s speed=0.941x    frame=  350 fps= 28 q=28.0 size=     256kB time=00:00:12.00 bitrate= 174.8kbits/s speed=0.951x    frame=  365 fps= 28 q=28.0 size=     256kB time=00:00:12.60 bitrate= 166.5kbits/s speed=0.959x    frame=  380 fps= 28 q=28.0 size=     256kB time=00:00:13.20 bitrate= 158.9kbits/s speed=0.967x    frame=  394 fps= 28 q=28.0 size=     256kB time=00:00:13.76 bitrate= 152.4kbits/s speed=0.971x    frame=  407 fps= 28 q=28.0 size=     256kB time=00:00:14.29 bitrate= 146.7kbits/s speed=0.975x    frame=  421 fps= 28 q=28.0 size=     256kB time=00:00:14.84 bitrate= 141.3kbits/s speed=0.978x    frame=  435 fps= 28 q=28.0 size=     256kB time=00:00:15.40 bitrate= 136.2kbits/s speed=0.98x    frame=  447 fps= 28 q=28.0 size=     256kB time=00:00:15.88 bitrate= 132.1kbits/s speed=0.978x    frame=  462 fps= 27 q=28.0 size=     256kB time=00:00:16.48 bitrate= 127.3kbits/s speed=0.981x    frame=  477 fps= 28 q=28.0 size=     256kB time=00:00:17.08 bitrate= 122.8kbits/s speed=0.985x    frame=  492 fps= 28 q=28.0 size=     256kB time=00:00:17.68 bitrate= 118.6kbits/s speed=0.988x    [mp3float @ 0x5e4df5378400] overread, skip -6 enddists: -4 -4
frame=  506 fps= 28 q=28.0 size=     256kB time=00:00:18.24 bitrate= 115.0kbits/s speed=0.991x    frame=  521 fps= 27 q=28.0 size=     256kB time=00:00:18.84 bitrate= 111.3kbits/s speed=0.994x    frame=  536 fps= 28 q=28.0 size=     256kB time=00:00:19.45 bitrate= 107.8kbits/s speed=   1x    frame=  550 fps= 28 q=28.0 size=     256kB time=00:00:20.00 bitrate= 104.9kbits/s speed=   1x    frame=  564 fps= 28 q=28.0 size=     256kB time=00:00:20.56 bitrate= 102.0kbits/s speed=   1x    frame=  580 fps= 28 q=28.0 size=     256kB time=00:00:21.20 bitrate=  98.9kbits/s speed=1.01x    frame=  595 fps= 28 q=28.0 size=     256kB time=00:00:21.80 bitrate=  96.2kbits/s speed=1.01x    frame=  609 fps= 28 q=28.0 size=     256kB time=00:00:22.36 bitrate=  93.8kbits/s speed=1.01x    frame=  624 fps= 28 q=28.0 size=     256kB time=00:00:22.96 bitrate=  91.4kbits/s speed=1.01x    frame=  639 fps= 28 q=28.0 size=     256kB time=00:00:23.56 bitrate=  89.0kbits/s speed=1.02x    frame=  654 fps= 28 q=28.0 size=     256kB time=00:00:24.16 bitrate=  86.8kbits/s speed=1.02x    frame=  670 fps= 28 q=28.0 size=     256kB time=00:00:24.83 bitrate=  84.5kbits/s speed=1.02x    frame=  683 fps= 28 q=28.0 size=     256kB time=00:00:25.32 bitrate=  82.8kbits/s speed=1.02x    frame=  697 fps= 28 q=28.0 size=     512kB time=00:00:25.88 bitrate= 162.1kbits/s speed=1.02x    frame=  713 fps= 28 q=28.0 size=     512kB time=00:00:26.52 bitrate= 158.2kbits/s speed=1.03x    frame=  729 fps= 28 q=28.0 size=     512kB time=00:00:27.16 bitrate= 154.4kbits/s speed=1.03x    frame=  744 fps= 28 q=28.0 size=     512kB time=00:00:27.76 bitrate= 151.1kbits/s speed=1.03x    [mp3float @ 0x5e4df5378400] overread, skip -7 enddists: -3 -3
frame=  760 fps= 28 q=28.0 size=     512kB time=00:00:28.40 bitrate= 147.7kbits/s speed=1.04x    frame=  774 fps= 28 q=28.0 size=     512kB time=00:00:28.96 bitrate= 144.8kbits/s speed=1.04x    [mp3float @ 0x5e4df5378400] overread, skip -5 enddists: -3 -3
frame=  789 fps= 28 q=28.0 size=     512kB time=00:00:29.56 bitrate= 141.9kbits/s speed=1.04x    frame=  803 fps= 28 q=28.0 size=     512kB time=00:00:30.12 bitrate= 139.3kbits/s speed=1.04x    frame=  817 fps= 28 q=28.0 size=     512kB time=00:00:30.68 bitrate= 136.7kbits/s speed=1.04x    frame=  830 fps= 28 q=28.0 size=     512kB time=00:00:31.20 bitrate= 134.4kbits/s speed=1.04x    frame=  844 fps= 28 q=28.0 size=     512kB time=00:00:31.76 bitrate= 132.1kbits/s speed=1.04x    [mp3float @ 0x5e4df5378400] overread, skip -6 enddists: -5 -5
[mp3float @ 0x5e4df5378400] overread, skip -7 enddists: -3 -3
frame=  859 fps= 28 q=28.0 size=     512kB time=00:00:32.36 bitrate= 129.6kbits/s speed=1.04x    frame=  874 fps= 28 q=28.0 size=     512kB time=00:00:32.96 bitrate= 127.3kbits/s speed=1.04x    frame=  888 fps= 28 q=28.0 size=     512kB time=00:00:33.52 bitrate= 125.1kbits/s speed=1.04x    frame=  903 fps= 28 q=28.0 size=     512kB time=00:00:34.12 bitrate= 122.9kbits/s speed=1.05x    frame=  918 fps= 28 q=28.0 size=     512kB time=00:00:34.72 bitrate= 120.8kbits/s speed=1.05x    frame=  933 fps= 28 q=28.0 size=     512kB time=00:00:35.32 bitrate= 118.8kbits/s speed=1.05x    frame=  948 fps= 28 q=28.0 size=     512kB time=00:00:35.92 bitrate= 116.8kbits/s speed=1.05x    frame=  963 fps= 28 q=28.0 size=     512kB time=00:00:36.52 bitrate= 114.9kbits/s speed=1.05x    frame=  977 fps= 28 q=28.0 size=     512kB time=00:00:37.12 bitrate= 113.0kbits/s speed=1.05x    frame=  991 fps= 28 q=28.0 size=     512kB time=00:00:37.64 bitrate= 111.4kbits/s speed=1.05x    frame= 1006 fps= 28 q=28.0 size=     512kB time=00:00:38.27 bitrate= 109.6kbits/s speed=1.05x    frame= 1020 fps= 28 q=28.0 size=     512kB time=00:00:38.80 bitrate= 108.1kbits/s speed=1.05x    frame= 1035 fps= 28 q=28.0 size=     768kB time=00:00:39.42 bitrate= 159.6kbits/s speed=1.05x    frame= 1048 fps= 28 q=28.0 size=     768kB time=00:00:39.92 bitrate= 157.6kbits/s speed=1.05x    frame= 1063 fps= 28 q=28.0 size=     768kB time=00:00:40.52 bitrate= 155.3kbits/s speed=1.05x    frame= 1077 fps= 28 q=28.0 size=     768kB time=00:00:41.08 bitrate= 153.2kbits/s speed=1.06x    frame= 1092 fps= 28 q=28.0 size=     768kB time=00:00:41.68 bitrate= 151.0kbits/s speed=1.06x    frame= 1107 fps= 28 q=28.0 size=     768kB time=00:00:42.28 bitrate= 148.8kbits/s speed=1.06x    frame= 1120 fps= 28 q=28.0 size=     768kB time=00:00:42.80 bitrate= 147.0kbits/s speed=1.06x    [mp3float @ 0x5e4df5378400] overread, skip -6 enddists: -3 -3
frame= 1136 fps= 28 q=28.0 size=     768kB time=00:00:43.47 bitrate= 144.7kbits/s speed=1.06x    frame= 1151 fps= 28 q=28.0 size=     768kB time=00:00:44.04 bitrate= 142.9kbits/s speed=1.06x    frame= 1165 fps= 28 q=28.0 size=     768kB time=00:00:44.62 bitrate= 141.0kbits/s speed=1.06x    [mp3float @ 0x5e4df5378400] overread, skip -8 enddists: -6 -6
frame= 1179 fps= 28 q=28.0 size=     768kB time=00:00:45.18 bitrate= 139.2kbits/s speed=1.06x    frame= 1193 fps= 28 q=28.0 size=     768kB time=00:00:45.72 bitrate= 137.6kbits/s speed=1.06x    frame= 1208 fps= 28 q=28.0 size=     768kB time=00:00:46.33 bitrate= 135.8kbits/s speed=1.06x    frame= 1222 fps= 28 q=28.0 size=     768kB time=00:00:46.88 bitrate= 134.2kbits/s speed=1.06x    frame= 1236 fps= 28 q=28.0 size=     768kB time=00:00:47.44 bitrate= 132.6kbits/s speed=1.06x    frame= 1251 fps= 28 q=28.0 size=     768kB time=00:00:48.04 bitrate= 131.0kbits/s speed=1.06x    frame= 1267 fps= 28 q=28.0 size=     768kB time=00:00:48.68 bitrate= 129.2kbits/s speed=1.06x    frame= 1280 fps= 28 q=28.0 size=     768kB time=00:00:49.23 bitrate= 127.8kbits/s speed=1.06x    frame= 1295 fps= 28 q=28.0 size=     768kB time=00:00:49.80 bitrate= 126.3kbits/s speed=1.06x    frame= 1308 fps= 28 q=28.0 size=     768kB time=00:00:50.32 bitrate= 125.0kbits/s speed=1.06x    frame= 1318 fps= 28 q=28.0 size=     768kB time=00:00:50.72 bitrate= 124.1kbits/s speed=1.06x    frame= 1322 fps= 27 q=28.0 size=     768kB time=00:00:50.88 bitrate= 123.7kbits/s speed=1.05x    frame= 1325 fps= 27 q=28.0 size=    1024kB time=00:00:51.00 bitrate= 164.5kbits/s speed=1.04x    frame= 1328 fps= 27 q=28.0 size=    1024kB time=00:00:51.15 bitrate= 164.0kbits/s speed=1.03x    frame= 1331 fps= 26 q=28.0 size=    1024kB time=00:00:51.24 bitrate= 163.7kbits/s speed=1.01x    frame= 1333 fps= 26 q=28.0 size=    1024kB time=00:00:51.32 bitrate= 163.4kbits/s speed=0.995x    frame= 1336 fps= 25 q=28.0 size=    1024kB time=00:00:51.44 bitrate= 163.1kbits/s speed=0.969x    frame= 1339 fps= 25 q=28.0 size=    1024kB time=00:00:51.56 bitrate= 162.7kbits/s speed=0.951x    frame= 1342 fps= 24 q=28.0 size=    1024kB time=00:00:51.71 bitrate= 162.2kbits/s speed=0.94x    frame= 1344 fps= 24 q=28.0 size=    1024kB time=00:00:51.76 bitrate= 162.1kbits/s speed=0.928x    frame= 1347 fps= 24 q=28.0 size=    1024kB time=00:00:51.88 bitrate= 161.7kbits/s speed=0.919x    frame= 1347 fps= 24 q=28.0 size=    1024kB time=00:00:51.88 bitrate= 161.7kbits/s speed=0.907x    frame= 1348 fps= 23 q=28.0 size=    1024kB time=00:00:51.92 bitrate= 161.6kbits/s speed= 0.9x    frame= 1351 fps= 23 q=28.0 size=    1024kB time=00:00:52.04 bitrate= 161.2kbits/s speed=0.878x    frame= 1354 fps= 23 q=28.0 size=    1024kB time=00:00:52.16 bitrate= 160.8kbits/s speed=0.873x    frame= 1355 fps= 22 q=28.0 size=    1024kB time=00:00:52.20 bitrate= 160.7kbits/s speed=0.866x    frame= 1357 fps= 22 q=28.0 size=    1024kB time=00:00:52.30 bitrate= 160.4kbits/s speed=0.856x    frame= 1359 fps= 19 q=28.0 size=    1024kB time=00:00:52.36 bitrate= 160.2kbits/s speed=0.749x    frame= 1360 fps= 19 q=28.0 size=    1024kB time=00:00:52.40 bitrate= 160.1kbits/s speed=0.743x    frame= 1363 fps= 19 q=28.0 size=    1024kB time=00:00:52.52 bitrate= 159.7kbits/s speed=0.738x    frame= 1367 fps= 19 q=28.0 size=    1024kB time=00:00:52.69 bitrate= 159.2kbits/s speed=0.733x    frame= 1372 fps= 19 q=28.0 size=    1024kB time=00:00:52.88 bitrate= 158.6kbits/s speed=0.73x    frame= 1376 fps= 19 q=28.0 size=    1024kB time=00:00:53.07 bitrate= 158.1kbits/s speed=0.725x    frame= 1380 fps= 19 q=28.0 size=    1024kB time=00:00:53.20 bitrate= 157.7kbits/s speed=0.72x    frame= 1383 fps= 19 q=28.0 size=    1024kB time=00:00:53.32 bitrate= 157.3kbits/s speed=0.715x    frame= 1385 fps= 18 q=28.0 size=    1024kB time=00:00:54.99 bitrate= 152.5kbits/s speed=0.732x    frame= 1385 fps= 17 q=-1.0 Lsize=    1126kB time=00:00:55.38 bitrate= 166.5kbits/s speed=0.663x    
video:301kB audio:790kB subtitle:0kB other streams:0kB global headers:0kB muxing overhead: 3.198326%
[libx264 @ 0x5e4df538ff40] frame I:6     Avg QP: 6.39  size: 33846
[libx264 @ 0x5e4df538ff40] frame P:349   Avg QP:11.91  size:    87
[libx264 @ 0x5e4df538ff40] frame B:1030  Avg QP: 9.67  size:    72
[libx264 @ 0x5e4df538ff40] consecutive B-frames:  0.8%  0.1%  0.0% 99.1%
[libx264 @ 0x5e4df538ff40] mb I  I16..4: 82.3% 10.5%  7.2%
[libx264 @ 0x5e4df538ff40] mb P  I16..4:  0.0%  0.0%  0.0%  P16..4:  0.0%  0.0%  0.0%  0.0%  0.0%    skip:100.0%
[libx264 @ 0x5e4df538ff40] mb B  I16..4:  0.0%  0.0%  0.0%  B16..8:  0.0%  0.0%  0.0%  direct: 0.0%  skip:100.0%  L0:65.5% L1:34.5% BI: 0.0%
[libx264 @ 0x5e4df538ff40] 8x8 transform intra:10.5% inter:88.6%
[libx264 @ 0x5e4df538ff40] coded y,uvDC,uvAC intra: 5.2% 5.0% 4.9% inter: 0.0% 0.0% 0.0%
[libx264 @ 0x5e4df538ff40] i16 v,h,dc,p: 96%  2%  2%  0%
[libx264 @ 0x5e4df538ff40] i8 v,h,dc,ddl,ddr,vr,hd,vl,hu: 39%  9% 52%  0%  0%  0%  0%  0%  0%
[libx264 @ 0x5e4df538ff40] i4 v,h,dc,ddl,ddr,vr,hd,vl,hu: 28% 20% 28%  4%  3%  4%  4%  5%  4%
[libx264 @ 0x5e4df538ff40] i8c dc,h,v,p: 94%  3%  2%  0%
[libx264 @ 0x5e4df538ff40] Weighted P-Frames: Y:0.0% UV:0.0%
[libx264 @ 0x5e4df538ff40] ref P L0: 98.9%  0.0%  1.1%
[libx264 @ 0x5e4df538ff40] ref B L0: 36.5% 63.5%
[libx264 @ 0x5e4df538ff40] ref B L1: 99.1%  0.9%
[libx264 @ 0x5e4df538ff40] kb/s:44.43
[aac @ 0x5e4df5391bc0] Qavg: 65532.984
ffmpeg version 4.4.2-0ubuntu0.22.04.1 Copyright (c) 2000-2021 the FFmpeg developers
  built with gcc 11 (Ubuntu 11.2.0-19ubuntu1)
  configuration: --prefix=/usr --extra-version=0ubuntu0.22.04.1 --toolchain=hardened --libdir=/usr/lib/x86_64-linux-gnu --incdir=/usr/include/x86_64-linux-gnu --arch=amd64 --enable-gpl --disable-stripping --enable-gnutls --enable-ladspa --enable-libaom --enable-libass --enable-libbluray --enable-libbs2b --enable-libcaca --enable-libcdio --enable-libcodec2 --enable-libdav1d --enable-libflite --enable-libfontconfig --enable-libfreetype --enable-libfribidi --enable-libgme --enable-libgsm --enable-libjack --enable-libmp3lame --enable-libmysofa --enable-libopenjpeg --enable-libopenmpt --enable-libopus --enable-libpulse --enable-librabbitmq --enable-librubberband --enable-libshine --enable-libsnappy --enable-libsoxr --enable-libspeex --enable-libsrt --enable-libssh --enable-libtheora --enable-libtwolame --enable-libvidstab --enable-libvorbis --enable-libvpx --enable-libwebp --enable-libx265 --enable-libxml2 --enable-libxvid --enable-libzimg --enable-libzmq --enable-libzvbi --enable-lv2 --enable-omx --enable-openal --enable-opencl --enable-opengl --enable-sdl2 --enable-pocketsphinx --enable-librsvg --enable-libmfx --enable-libdc1394 --enable-libdrm --enable-libiec61883 --enable-chromaprint --enable-frei0r --enable-libx264 --enable-shared
  libavutil      56. 70.100 / 56. 70.100
  libavcodec     58.134.100 / 58.134.100
  libavformat    58. 76.100 / 58. 76.100
  libavdevice    58. 13.100 / 58. 13.100
  libavfilter     7.110.100 /  7.110.100
  libswscale      5.  9.100 /  5.  9.100
  libswresample   3.  9.100 /  3.  9.100
  libpostproc    55.  9.100 / 55.  9.100
Input #0, png_pipe, from 'visuals/wheel_t0_2.png':
  Duration: N/A, bitrate: N/A
  Stream #0:0: Video: png, rgba(pc), 1800x1800 [SAR 11811:11811 DAR 1:1], 25 fps, 25 tbr, 25 tbn, 25 tbc
[mp3 @ 0x5943cae0fd40] Estimating duration from bitrate, this may be inaccurate
Input #1, mp3, from 'audio/section_4.mp3':
  Duration: 00:00:49.01, start: 0.000000, bitrate: 48 kb/s
  Stream #1:0: Audio: mp3, 24000 Hz, mono, fltp, 48 kb/s
Stream mapping:
  Stream #0:0 -> #0:0 (png (native) -> h264 (libx264))
  Stream #1:0 -> #0:1 (mp3 (mp3float) -> aac (native))
[swscaler @ 0x5943cafd7a80] Warning: data is not aligned! This can lead to a speed loss
[libx264 @ 0x5943caee9900] using SAR=1/1
[libx264 @ 0x5943caee9900] using cpu capabilities: MMX2 SSE2Fast SSSE3 SSE4.2 AVX FMA3 BMI2 AVX2
[libx264 @ 0x5943caee9900] profile High, level 4.0, 4:2:0, 8-bit
[libx264 @ 0x5943caee9900] 264 - core 163 r3060 5db6aa6 - H.264/MPEG-4 AVC codec - Copyleft 2003-2021 - http://www.videolan.org/x264.html - options: cabac=1 ref=3 deblock=1:-3:-3 analyse=0x3:0x113 me=hex subme=7 psy=1 psy_rd=2.00:0.70 mixed_ref=1 me_range=16 chroma_me=1 trellis=1 8x8dct=1 cqm=0 deadzone=21,11 fast_pskip=1 chroma_qp_offset=-4 threads=3 lookahead_threads=1 sliced_threads=0 nr=0 decimate=1 interlaced=0 bluray_compat=0 constrained_intra=0 bframes=3 b_pyramid=2 b_adapt=1 b_bias=0 direct=1 weightb=1 open_gop=0 weightp=2 keyint=250 keyint_min=25 scenecut=40 intra_refresh=0 rc_lookahead=40 rc=crf mbtree=1 crf=23.0 qcomp=0.60 qpmin=0 qpmax=69 qpstep=4 ip_ratio=1.40 aq=1:1.20
[aac @ 0x5943caeeb5c0] Too many bits 8192.000000 > 6144 per frame requested, clamping to max
Output #0, mp4, to 'seg4.mp4':
  Metadata:
    encoder         : Lavf58.76.100
  Stream #0:0: Video: h264 (avc1 / 0x31637661), yuv420p(tv, progressive), 1920x1080 [SAR 1:1 DAR 16:9], q=2-31, 25 fps, 12800 tbn
    Metadata:
      encoder         : Lavc58.134.100 libx264
    Side data:
      cpb: bitrate max/min/avg: 0/0/0 buffer size: 0 vbv_delay: N/A
  Stream #0:1: Audio: aac (LC) (mp4a / 0x6134706D), 24000 Hz, mono, fltp, 144 kb/s
    Metadata:
      encoder         : Lavc58.134.100 aac
frame=    1 fps=0.0 q=0.0 size=       0kB time=00:00:00.00 bitrate=N/A speed=   0x    frame=    8 fps=8.0 q=0.0 size=       0kB time=00:00:00.00 bitrate=N/A speed=   0x    frame=   13 fps=8.6 q=0.0 size=       0kB time=00:00:00.00 bitrate=N/A speed=   0x    frame=   17 fps=8.3 q=0.0 size=       0kB time=00:00:00.00 bitrate=N/A speed=   0x    frame=   21 fps=7.9 q=0.0 size=       0kB time=00:00:00.00 bitrate=N/A speed=   0x    frame=   26 fps=8.0 q=0.0 size=       0kB time=00:00:00.00 bitrate=N/A speed=   0x    frame=   30 fps=7.9 q=0.0 size=       0kB time=00:00:00.00 bitrate=N/A speed=   0x    frame=   36 fps=8.1 q=0.0 size=       0kB time=00:00:00.00 bitrate=N/A speed=   0x    frame=   41 fps=8.1 q=0.0 size=       0kB time=00:00:00.00 bitrate=N/A speed=   0x    frame=   46 fps=8.3 q=0.0 size=       0kB time=00:00:00.00 bitrate=N/A speed=   0x    frame=   48 fps=7.8 q=28.0 size=       0kB time=00:00:00.00 bitrate=N/A speed=   0x    frame=   48 fps=6.6 q=28.0 size=       0kB time=00:00:00.00 bitrate=N/A speed=   0x    frame=   51 fps=6.5 q=28.0 size=       0kB time=00:00:00.04 bitrate=   9.6kbits/s speed=0.00509x    frame=   53 fps=6.3 q=28.0 size=       0kB time=00:00:00.12 bitrate=   3.2kbits/s speed=0.0142x    frame=   56 fps=6.2 q=28.0 size=       0kB time=00:00:00.25 bitrate=   1.5kbits/s speed=0.0281x    frame=   58 fps=6.0 q=28.0 size=       0kB time=00:00:00.32 bitrate=   1.2kbits/s speed=0.0329x    frame=   61 fps=5.8 q=28.0 size=       0kB time=00:00:00.46 bitrate=   0.8kbits/s speed=0.0444x    frame=   65 fps=5.6 q=28.0 size=       0kB time=00:00:00.64 bitrate=   0.6kbits/s speed=0.0552x    frame=   69 fps=5.6 q=28.0 size=       0kB time=00:00:00.76 bitrate=   0.5kbits/s speed=0.0618x    frame=   72 fps=5.6 q=28.0 size=       0kB time=00:00:00.88 bitrate=   0.4kbits/s speed=0.0685x    frame=   76 fps=5.7 q=28.0 size=       0kB time=00:00:01.04 bitrate=   0.4kbits/s speed=0.0779x    frame=   80 fps=5.7 q=28.0 size=       0kB time=00:00:01.23 bitrate=   0.3kbits/s speed=0.0879x    frame=   84 fps=5.8 q=28.0 size=       0kB time=00:00:01.36 bitrate=   0.3kbits/s speed=0.0933x    frame=   87 fps=5.7 q=28.0 size=       0kB time=00:00:01.48 bitrate=   0.3kbits/s speed=0.0978x    frame=   91 fps=5.8 q=28.0 size=       0kB time=00:00:01.64 bitrate=   0.2kbits/s speed=0.104x    frame=   94 fps=5.8 q=28.0 size=       0kB time=00:00:01.79 bitrate=   0.2kbits/s speed=0.11x    frame=   99 fps=5.8 q=28.0 size=       0kB time=00:00:01.96 bitrate=   0.2kbits/s speed=0.115x    frame=  101 fps=5.8 q=28.0 size=       0kB time=00:00:02.04 bitrate=   0.2kbits/s speed=0.116x    frame=  104 fps=5.7 q=28.0 size=       0kB time=00:00:02.17 bitrate=   0.2kbits/s speed=0.12x    frame=  107 fps=5.7 q=28.0 size=       0kB time=00:00:02.28 bitrate=   0.2kbits/s speed=0.122x    frame=  110 fps=5.7 q=28.0 size=       0kB time=00:00:02.40 bitrate=   0.2kbits/s speed=0.124x    frame=  113 fps=5.7 q=28.0 size=       0kB time=00:00:02.56 bitrate=   0.1kbits/s speed=0.129x    frame=  116 fps=5.6 q=28.0 size=       0kB time=00:00:02.64 bitrate=   0.1kbits/s speed=0.128x    frame=  120 fps=5.7 q=28.0 size=       0kB time=00:00:02.80 bitrate=   0.1kbits/s speed=0.132x    frame=  123 fps=5.7 q=28.0 size=       0kB time=00:00:02.94 bitrate=   0.1kbits/s speed=0.136x    frame=  126 fps=5.7 q=28.0 size=       0kB time=00:00:03.04 bitrate=   0.1kbits/s speed=0.137x    frame=  129 fps=5.7 q=28.0 size=       0kB time=00:00:03.16 bitrate=   0.1kbits/s speed=0.139x    frame=  133 fps=5.7 q=28.0 size=       0kB time=00:00:03.32 bitrate=   0.1kbits/s speed=0.142x    frame=  136 fps=5.7 q=28.0 size=       0kB time=00:00:03.44 bitrate=   0.1kbits/s speed=0.144x    frame=  140 fps=5.7 q=28.0 size=       0kB time=00:00:03.60 bitrate=   0.1kbits/s speed=0.147x    frame=  144 fps=5.8 q=28.0 size=       0kB time=00:00:03.76 bitrate=   0.1kbits/s speed=0.151x    frame=  147 fps=5.8 q=28.0 size=       0kB time=00:00:03.88 bitrate=   0.1kbits/s speed=0.152x    frame=  150 fps=5.7 q=28.0 size=       0kB time=00:00:04.00 bitrate=   0.1kbits/s speed=0.153x    frame=  153 fps=5.7 q=28.0 size=       0kB time=00:00:04.12 bitrate=   0.1kbits/s speed=0.153x    frame=  157 fps=5.7 q=28.0 size=       0kB time=00:00:04.30 bitrate=   0.1kbits/s speed=0.157x    frame=  161 fps=5.7 q=28.0 size=       0kB time=00:00:04.48 bitrate=   0.1kbits/s speed=0.16x    frame=  165 fps=5.8 q=28.0 size=       0kB time=00:00:04.60 bitrate=   0.1kbits/s speed=0.161x    frame=  167 fps=5.7 q=28.0 size=       0kB time=00:00:04.69 bitrate=   0.1kbits/s speed=0.162x    frame=  171 fps=5.8 q=28.0 size=       0kB time=00:00:04.84 bitrate=   0.1kbits/s speed=0.164x    frame=  174 fps=5.8 q=28.0 size=       0kB time=00:00:04.96 bitrate=   0.1kbits/s speed=0.165x    frame=  177 fps=5.8 q=28.0 size=       0kB time=00:00:05.08 bitrate=   0.1kbits/s speed=0.166x    frame=  181 fps=5.7 q=28.0 size=       0kB time=00:00:05.24 bitrate=   0.1kbits/s speed=0.167x    frame=  184 fps=5.8 q=28.0 size=       0kB time=00:00:05.36 bitrate=   0.1kbits/s speed=0.168x    frame=  187 fps=5.7 q=28.0 size=       0kB time=00:00:05.48 bitrate=   0.1kbits/s speed=0.168x    frame=  191 fps=5.8 q=28.0 size=       0kB time=00:00:05.64 bitrate=   0.1kbits/s speed=0.17x    frame=  195 fps=5.8 q=28.0 size=       0kB time=00:00:05.80 bitrate=   0.1kbits/s speed=0.172x    frame=  198 fps=5.8 q=28.0 size=       0kB time=00:00:05.92 bitrate=   0.1kbits/s speed=0.173x    frame=  201 fps=5.8 q=28.0 size=       0kB time=00:00:06.04 bitrate=   0.1kbits/s speed=0.173x    frame=  206 fps=5.8 q=28.0 size=       0kB time=00:00:06.24 bitrate=   0.1kbits/s speed=0.176x    frame=  209 fps=5.8 q=28.0 size=       0kB time=00:00:06.40 bitrate=   0.1kbits/s speed=0.178x    frame=  213 fps=5.8 q=28.0 size=       0kB time=00:00:06.52 bitrate=   0.1kbits/s speed=0.177x    frame=  218 fps=5.8 q=28.0 size=       0kB time=00:00:06.72 bitrate=   0.1kbits/s speed=0.179x    frame=  222 fps=5.8 q=28.0 size=       0kB time=00:00:06.88 bitrate=   0.1kbits/s speed=0.18x    frame=  225 fps=5.8 q=28.0 size=       0kB time=00:00:07.00 bitrate=   0.1kbits/s speed=0.18x    frame=  229 fps=5.8 q=28.0 size=       0kB time=00:00:07.16 bitrate=   0.1kbits/s speed=0.181x    frame=  233 fps=5.8 q=28.0 size=       0kB time=00:00:07.32 bitrate=   0.1kbits/s speed=0.182x    frame=  238 fps=5.8 q=28.0 size=       0kB time=00:00:07.55 bitrate=   0.1kbits/s speed=0.185x    frame=  241 fps=5.8 q=28.0 size=       0kB time=00:00:07.64 bitrate=   0.1kbits/s speed=0.185x    frame=  245 fps=5.8 q=28.0 size=       0kB time=00:00:07.80 bitrate=   0.0kbits/s speed=0.186x    frame=  249 fps=5.9 q=28.0 size=       0kB time=00:00:07.96 bitrate=   0.0kbits/s speed=0.187x    frame=  253 fps=5.9 q=28.0 size=       0kB time=00:00:08.14 bitrate=   0.0kbits/s speed=0.189x    frame=  257 fps=5.8 q=28.0 size=       0kB time=00:00:08.32 bitrate=   0.0kbits/s speed=0.189x    frame=  262 fps=5.9 q=28.0 size=       0kB time=00:00:08.48 bitrate=   0.0kbits/s speed=0.19x    frame=  265 fps=5.9 q=28.0 size=       0kB time=00:00:08.60 bitrate=   0.0kbits/s speed=0.191x    frame=  269 fps=5.9 q=28.0 size=       0kB time=00:00:08.76 bitrate=   0.0kbits/s speed=0.191x    frame=  273 fps=5.9 q=28.0 size=       0kB time=00:00:08.92 bitrate=   0.0kbits/s speed=0.192x    frame=  277 fps=5.9 q=28.0 size=       0kB time=00:00:09.08 bitrate=   0.0kbits/s speed=0.192x    frame=  281 fps=5.9 q=28.0 size=       0kB time=00:00:09.24 bitrate=   0.0kbits/s speed=0.193x    frame=  285 fps=5.8 q=28.0 size=       0kB time=00:00:09.40 bitrate=   0.0kbits/s speed=0.193x    frame=  289 fps=5.8 q=28.0 size=       0kB time=00:00:09.56 bitrate=   0.0kbits/s speed=0.193x    frame=  293 fps=5.8 q=28.0 size=       0kB time=00:00:09.72 bitrate=   0.0kbits/s speed=0.193x    frame=  296 fps=5.8 q=25.0 size=       0kB time=00:00:09.85 bitrate=   0.0kbits/s speed=0.193x    frame=  298 fps=5.7 q=28.0 size=       0kB time=00:00:09.92 bitrate=   0.0kbits/s speed=0.19x    frame=  302 fps=5.7 q=28.0 size=       0kB time=00:00:10.08 bitrate=   0.0kbits/s speed=0.191x    frame=  307 fps=5.8 q=28.0 size=       0kB time=00:00:10.28 bitrate=   0.0kbits/s speed=0.193x    frame=  311 fps=5.7 q=28.0 size=       0kB time=00:00:10.45 bitrate=   0.0kbits/s speed=0.193x    frame=  315 fps=5.7 q=28.0 size=       0kB time=00:00:10.62 bitrate=   0.0kbits/s speed=0.194x    frame=  320 fps=5.8 q=28.0 size=       0kB time=00:00:10.83 bitrate=   0.0kbits/s speed=0.195x    frame=  323 fps=5.8 q=28.0 size=       0kB time=00:00:10.92 bitrate=   0.0kbits/s speed=0.195x    frame=  327 fps=5.8 q=28.0 size=       0kB time=00:00:11.08 bitrate=   0.0kbits/s speed=0.196x    frame=  331 fps=5.8 q=28.0 size=       0kB time=00:00:11.24 bitrate=   0.0kbits/s speed=0.196x    frame=  335 fps=5.8 q=28.0 size=       0kB time=00:00:11.40 bitrate=   0.0kbits/s speed=0.196x    frame=  339 fps=5.8 q=28.0 size=       0kB time=00:00:11.56 bitrate=   0.0kbits/s speed=0.196x    frame=  342 fps=5.8 q=28.0 size=       0kB time=00:00:11.68 bitrate=   0.0kbits/s speed=0.197x    frame=  346 fps=5.8 q=28.0 size=       0kB time=00:00:11.84 bitrate=   0.0kbits/s speed=0.197x    frame=  350 fps=5.8 q=28.0 size=       0kB time=00:00:12.00 bitrate=   0.0kbits/s speed=0.198x    frame=  352 fps=5.7 q=28.0 size=       0kB time=00:00:12.08 bitrate=   0.0kbits/s speed=0.197x    frame=  355 fps=5.7 q=28.0 size=       0kB time=00:00:12.20 bitrate=   0.0kbits/s speed=0.197x    frame=  359 fps=5.7 q=28.0 size=       0kB time=00:00:12.37 bitrate=   0.0kbits/s speed=0.198x    frame=  363 fps=5.7 q=28.0 size=     256kB time=00:00:12.54 bitrate= 167.2kbits/s speed=0.198x    frame=  367 fps=5.7 q=28.0 size=     256kB time=00:00:12.68 bitrate= 165.4kbits/s speed=0.199x    frame=  371 fps=5.7 q=28.0 size=     256kB time=00:00:12.84 bitrate= 163.4kbits/s speed=0.199x    frame=  374 fps=5.7 q=28.0 size=     256kB time=00:00:12.96 bitrate= 161.8kbits/s speed=0.199x    frame=  377 fps=5.7 q=28.0 size=     256kB time=00:00:13.08 bitrate= 160.4kbits/s speed=0.199x    frame=  381 fps=5.8 q=28.0 size=     256kB time=00:00:13.24 bitrate= 158.4kbits/s speed= 0.2x    frame=  387 fps=5.8 q=28.0 size=     256kB time=00:00:13.48 bitrate= 155.6kbits/s speed=0.201x    frame=  389 fps=5.8 q=28.0 size=     256kB time=00:00:13.56 bitrate= 154.7kbits/s speed=0.201x    frame=  391 fps=5.7 q=28.0 size=     256kB time=00:00:13.64 bitrate= 153.8kbits/s speed= 0.2x    frame=  395 fps=5.8 q=28.0 size=     256kB time=00:00:13.80 bitrate= 152.0kbits/s speed=0.201x    frame=  399 fps=5.7 q=28.0 size=     256kB time=00:00:13.96 bitrate= 150.3kbits/s speed=0.201x    frame=  403 fps=5.7 q=28.0 size=     256kB time=00:00:14.12 bitrate= 148.5kbits/s speed=0.201x    frame=  407 fps=5.7 q=28.0 size=     256kB time=00:00:14.29 bitrate= 146.7kbits/s speed=0.202x    frame=  411 fps=5.7 q=28.0 size=     256kB time=00:00:14.46 bitrate= 145.0kbits/s speed=0.202x    frame=  415 fps=5.8 q=28.0 size=     256kB time=00:00:14.60 bitrate= 143.7kbits/s speed=0.202x    frame=  419 fps=5.7 q=28.0 size=     256kB time=00:00:14.76 bitrate= 142.1kbits/s speed=0.203x    frame=  423 fps=5.8 q=28.0 size=     256kB time=00:00:14.92 bitrate= 140.6kbits/s speed=0.203x    frame=  427 fps=5.8 q=28.0 size=     256kB time=00:00:15.08 bitrate= 139.1kbits/s speed=0.203x    frame=  431 fps=5.8 q=28.0 size=     256kB time=00:00:15.24 bitrate= 137.6kbits/s speed=0.204x    frame=  435 fps=5.8 q=28.0 size=     256kB time=00:00:15.40 bitrate= 136.2kbits/s speed=0.204x    frame=  439 fps=5.8 q=28.0 size=     256kB time=00:00:15.56 bitrate= 134.8kbits/s speed=0.204x    frame=  443 fps=5.8 q=28.0 size=     256kB time=00:00:15.72 bitrate= 133.4kbits/s speed=0.204x    frame=  446 fps=5.8 q=28.0 size=     256kB time=00:00:15.84 bitrate= 132.4kbits/s speed=0.205x    frame=  451 fps=5.8 q=28.0 size=     256kB time=00:00:16.04 bitrate= 130.8kbits/s speed=0.205x    frame=  454 fps=5.8 q=28.0 size=     256kB time=00:00:16.16 bitrate= 129.8kbits/s speed=0.205x    frame=  456 fps=5.7 q=28.0 size=     256kB time=00:00:16.24 bitrate= 129.2kbits/s speed=0.205x    frame=  459 fps=5.7 q=28.0 size=     256kB time=00:00:16.38 bitrate= 128.0kbits/s speed=0.205x    frame=  463 fps=5.7 q=28.0 size=     256kB time=00:00:16.52 bitrate= 127.0kbits/s speed=0.205x    frame=  467 fps=5.7 q=28.0 size=     256kB time=00:00:16.68 bitrate= 125.8kbits/s speed=0.205x    frame=  471 fps=5.7 q=28.0 size=     256kB time=00:00:16.84 bitrate= 124.6kbits/s speed=0.205x    frame=  474 fps=5.7 q=28.0 size=     256kB time=00:00:16.98 bitrate= 123.5kbits/s speed=0.206x    frame=  479 fps=5.8 q=28.0 size=     256kB time=00:00:17.16 bitrate= 122.2kbits/s speed=0.206x    frame=  483 fps=5.8 q=28.0 size=     256kB time=00:00:17.32 bitrate= 121.1kbits/s speed=0.206x    frame=  486 fps=5.8 q=28.0 size=     256kB time=00:00:17.44 bitrate= 120.3kbits/s speed=0.206x    frame=  490 fps=5.8 q=28.0 size=     256kB time=00:00:17.60 bitrate= 119.2kbits/s speed=0.207x    frame=  493 fps=5.8 q=28.0 size=     256kB time=00:00:17.74 bitrate= 118.2kbits/s speed=0.207x    [mp3float @ 0x5943ca9d1f00] overread, skip -8 enddists: -2 -2
frame=  497 fps=5.8 q=28.0 size=     256kB time=00:00:17.92 bitrate= 117.0kbits/s speed=0.208x    frame=  500 fps=5.8 q=28.0 size=     256kB time=00:00:18.00 bitrate= 116.5kbits/s speed=0.207x    frame=  504 fps=5.8 q=28.0 size=     256kB time=00:00:18.16 bitrate= 115.5kbits/s speed=0.208x    frame=  507 fps=5.8 q=28.0 size=     256kB time=00:00:18.30 bitrate= 114.6kbits/s speed=0.208x    frame=  510 fps=5.8 q=28.0 size=     256kB time=00:00:18.40 bitrate= 114.0kbits/s speed=0.208x    frame=  515 fps=5.8 q=28.0 size=     256kB time=00:00:18.60 bitrate= 112.8kbits/s speed=0.209x    frame=  516 fps=5.8 q=28.0 size=     256kB time=00:00:18.64 bitrate= 112.5kbits/s speed=0.208x    frame=  520 fps=5.8 q=28.0 size=     256kB time=00:00:18.80 bitrate= 111.6kbits/s speed=0.208x    frame=  523 fps=5.8 q=28.0 size=     256kB time=00:00:18.92 bitrate= 110.9kbits/s speed=0.208x    frame=  527 fps=5.8 q=28.0 size=     256kB time=00:00:19.08 bitrate= 109.9kbits/s speed=0.209x    frame=  531 fps=5.8 q=28.0 size=     256kB time=00:00:19.24 bitrate= 109.0kbits/s speed=0.21x    frame=  534 fps=5.8 q=28.0 size=     256kB time=00:00:19.36 bitrate= 108.3kbits/s speed=0.21x    frame=  537 fps=5.8 q=28.0 size=     256kB time=00:00:19.48 bitrate= 107.7kbits/s speed=0.21x    frame=  539 fps=5.8 q=28.0 size=     256kB time=00:00:19.56 bitrate= 107.2kbits/s speed=0.209x    frame=  543 fps=5.8 q=28.0 size=     256kB time=00:00:19.72 bitrate= 106.4kbits/s speed=0.209x    frame=  547 fps=5.8 q=28.0 size=     256kB time=00:00:19.88 bitrate= 105.5kbits/s speed=0.21x    frame=  548 fps=5.7 q=28.0 size=     256kB time=00:00:19.92 bitrate= 105.3kbits/s speed=0.208x    frame=  552 fps=5.7 q=28.0 size=     256kB time=00:00:20.08 bitrate= 104.5kbits/s speed=0.209x    frame=  555 fps=5.7 q=28.0 size=     256kB time=00:00:20.22 bitrate= 103.7kbits/s speed=0.209x    frame=  558 fps=5.7 q=28.0 size=     256kB time=00:00:20.32 bitrate= 103.2kbits/s speed=0.208x    frame=  561 fps=5.7 q=28.0 size=     256kB time=00:00:20.44 bitrate= 102.6kbits/s speed=0.208x    frame=  565 fps=5.7 q=28.0 size=     256kB time=00:00:20.60 bitrate= 101.8kbits/s speed=0.208x    frame=  569 fps=5.7 q=28.0 size=     256kB time=00:00:20.76 bitrate= 101.0kbits/s speed=0.209x    frame=  573 fps=5.7 q=28.0 size=     256kB time=00:00:20.92 bitrate= 100.3kbits/s speed=0.209x    frame=  577 fps=5.7 q=28.0 size=     256kB time=00:00:21.08 bitrate=  99.5kbits/s speed=0.209x    frame=  581 fps=5.7 q=28.0 size=     256kB time=00:00:21.24 bitrate=  98.8kbits/s speed=0.209x    frame=  585 fps=5.7 q=28.0 size=     256kB time=00:00:21.40 bitrate=  98.0kbits/s speed=0.209x    frame=  589 fps=5.7 q=28.0 size=     256kB time=00:00:21.58 bitrate=  97.2kbits/s speed=0.209x    frame=  595 fps=5.7 q=28.0 size=     256kB time=00:00:21.80 bitrate=  96.2kbits/s speed=0.21x    [mp3float @ 0x5943ca9d1f00] overread, skip -7 enddists: -3 -3
frame=  598 fps=5.7 q=28.0 size=     256kB time=00:00:21.92 bitrate=  95.7kbits/s speed=0.209x    frame=  601 fps=5.7 q=28.0 size=     256kB time=00:00:22.04 bitrate=  95.2kbits/s speed=0.21x    frame=  605 fps=5.7 q=28.0 size=     256kB time=00:00:22.20 bitrate=  94.5kbits/s speed=0.21x    frame=  609 fps=5.7 q=28.0 size=     256kB time=00:00:22.36 bitrate=  93.8kbits/s speed=0.21x    frame=  613 fps=5.7 q=28.0 size=     256kB time=00:00:22.52 bitrate=  93.1kbits/s speed=0.21x    frame=  617 fps=5.7 q=28.0 size=     256kB time=00:00:22.68 bitrate=  92.5kbits/s speed=0.21x    frame=  621 fps=5.7 q=28.0 size=     256kB time=00:00:22.84 bitrate=  91.8kbits/s speed=0.21x    frame=  625 fps=5.7 q=28.0 size=     256kB time=00:00:23.00 bitrate=  91.2kbits/s speed=0.21x    frame=  629 fps=5.7 q=28.0 size=     256kB time=00:00:23.16 bitrate=  90.6kbits/s speed=0.21x    frame=  632 fps=5.7 q=28.0 size=     256kB time=00:00:23.29 bitrate=  90.0kbits/s speed=0.21x    frame=  635 fps=5.7 q=28.0 size=     256kB time=00:00:23.40 bitrate=  89.6kbits/s speed=0.21x    frame=  638 fps=5.7 q=28.0 size=     256kB time=00:00:23.52 bitrate=  89.2kbits/s speed=0.21x    frame=  641 fps=5.7 q=28.0 size=     256kB time=00:00:23.68 bitrate=  88.6kbits/s speed=0.21x    frame=  645 fps=5.7 q=28.0 size=     256kB time=00:00:23.80 bitrate=  88.1kbits/s speed=0.21x    frame=  649 fps=5.7 q=28.0 size=     256kB time=00:00:23.96 bitrate=  87.5kbits/s speed=0.21x    frame=  652 fps=5.7 q=28.0 size=     256kB time=00:00:24.08 bitrate=  87.1kbits/s speed=0.21x    frame=  654 fps=5.7 q=28.0 size=     256kB time=00:00:24.16 bitrate=  86.8kbits/s speed=0.21x    frame=  657 fps=5.7 q=28.0 size=     256kB time=00:00:24.28 bitrate=  86.4kbits/s speed=0.21x    frame=  661 fps=5.7 q=28.0 size=     256kB time=00:00:24.44 bitrate=  85.8kbits/s speed=0.21x    frame=  664 fps=5.7 q=28.0 size=     256kB time=00:00:24.56 bitrate=  85.4kbits/s speed=0.21x    frame=  668 fps=5.7 q=28.0 size=     256kB time=00:00:24.72 bitrate=  84.9kbits/s speed=0.21x    frame=  672 fps=5.7 q=28.0 size=     256kB time=00:00:24.88 bitrate=  84.3kbits/s speed=0.21x    frame=  677 fps=5.7 q=28.0 size=     256kB time=00:00:25.08 bitrate=  83.6kbits/s speed=0.21x    frame=  681 fps=5.7 q=28.0 size=     256kB time=00:00:25.24 bitrate=  83.1kbits/s speed=0.21x    frame=  685 fps=5.7 q=28.0 size=     256kB time=00:00:25.42 bitrate=  82.5kbits/s speed=0.211x    frame=  689 fps=5.7 q=28.0 size=     256kB time=00:00:25.60 bitrate=  81.9kbits/s speed=0.211x    frame=  693 fps=5.7 q=28.0 size=     256kB time=00:00:25.72 bitrate=  81.6kbits/s speed=0.211x    frame=  696 fps=5.7 q=28.0 size=     256kB time=00:00:25.84 bitrate=  81.2kbits/s speed=0.211x    frame=  700 fps=5.7 q=28.0 size=     256kB time=00:00:26.00 bitrate=  80.7kbits/s speed=0.211x    frame=  704 fps=5.7 q=28.0 size=     256kB time=00:00:26.19 bitrate=  80.1kbits/s speed=0.212x    frame=  707 fps=5.7 q=28.0 size=     256kB time=00:00:26.28 bitrate=  79.8kbits/s speed=0.212x    frame=  710 fps=5.7 q=28.0 size=     512kB time=00:00:26.40 bitrate= 158.9kbits/s speed=0.212x    frame=  714 fps=5.7 q=28.0 size=     512kB time=00:00:26.58 bitrate= 157.8kbits/s speed=0.212x    frame=  718 fps=5.7 q=28.0 size=     512kB time=00:00:26.75 bitrate= 156.8kbits/s speed=0.212x    frame=  721 fps=5.7 q=28.0 size=     512kB time=00:00:26.84 bitrate= 156.3kbits/s speed=0.211x    frame=  725 fps=5.7 q=28.0 size=     512kB time=00:00:27.00 bitrate= 155.4kbits/s speed=0.212x    frame=  729 fps=5.7 q=28.0 size=     512kB time=00:00:27.16 bitrate= 154.4kbits/s speed=0.212x    frame=  733 fps=5.7 q=28.0 size=     512kB time=00:00:27.34 bitrate= 153.4kbits/s speed=0.212x    frame=  737 fps=5.7 q=28.0 size=     512kB time=00:00:27.52 bitrate= 152.4kbits/s speed=0.212x    frame=  741 fps=5.7 q=28.0 size=     512kB time=00:00:27.64 bitrate= 151.8kbits/s speed=0.212x    frame=  745 fps=5.7 q=28.0 size=     512kB time=00:00:27.80 bitrate= 150.9kbits/s speed=0.212x    frame=  749 fps=5.7 q=28.0 size=     512kB time=00:00:27.96 bitrate= 150.0kbits/s speed=0.212x    frame=  753 fps=5.7 q=28.0 size=     512kB time=00:00:28.12 bitrate= 149.2kbits/s speed=0.212x    frame=  757 fps=5.7 q=28.0 size=     512kB time=00:00:28.28 bitrate= 148.3kbits/s speed=0.212x    frame=  761 fps=5.7 q=28.0 size=     512kB time=00:00:28.44 bitrate= 147.5kbits/s speed=0.212x    frame=  764 fps=5.7 q=28.0 size=     512kB time=00:00:28.56 bitrate= 146.9kbits/s speed=0.212x    frame=  768 fps=5.7 q=28.0 size=     512kB time=00:00:28.72 bitrate= 146.1kbits/s speed=0.212x    frame=  772 fps=5.7 q=28.0 size=     512kB time=00:00:28.88 bitrate= 145.2kbits/s speed=0.212x    frame=  776 fps=5.7 q=28.0 size=     512kB time=00:00:29.05 bitrate= 144.4kbits/s speed=0.213x    frame=  778 fps=5.7 q=28.0 size=     512kB time=00:00:29.12 bitrate= 144.0kbits/s speed=0.212x    frame=  781 fps=5.7 q=28.0 size=     512kB time=00:00:29.26 bitrate= 143.3kbits/s speed=0.212x    [mp3float @ 0x5943ca9d1f00] overread, skip -6 enddists: -5 -5
frame=  785 fps=5.7 q=28.0 size=     512kB time=00:00:29.44 bitrate= 142.5kbits/s speed=0.212x    frame=  789 fps=5.7 q=28.0 size=     512kB time=00:00:29.56 bitrate= 141.9kbits/s speed=0.212x    frame=  793 fps=5.7 q=28.0 size=     512kB time=00:00:29.72 bitrate= 141.1kbits/s speed=0.212x    frame=  797 fps=5.7 q=28.0 size=     512kB time=00:00:29.88 bitrate= 140.4kbits/s speed=0.212x    frame=  798 fps=5.6 q=28.0 size=     512kB time=00:00:29.92 bitrate= 140.2kbits/s speed=0.212x    frame=  803 fps=5.7 q=28.0 size=     512kB time=00:00:30.12 bitrate= 139.3kbits/s speed=0.212x    frame=  805 fps=5.7 q=28.0 size=     512kB time=00:00:30.20 bitrate= 138.9kbits/s speed=0.212x    frame=  808 fps=5.6 q=28.0 size=     512kB time=00:00:30.32 bitrate= 138.3kbits/s speed=0.212x    frame=  812 fps=5.7 q=28.0 size=     512kB time=00:00:30.48 bitrate= 137.6kbits/s speed=0.212x    frame=  816 fps=5.7 q=28.0 size=     512kB time=00:00:30.64 bitrate= 136.9kbits/s speed=0.212x    frame=  819 fps=5.6 q=28.0 size=     512kB time=00:00:30.76 bitrate= 136.4kbits/s speed=0.212x    frame=  823 fps=5.6 q=28.0 size=     512kB time=00:00:30.92 bitrate= 135.7kbits/s speed=0.212x    frame=  827 fps=5.6 q=28.0 size=     512kB time=00:00:31.08 bitrate= 135.0kbits/s speed=0.212x    [mp3float @ 0x5943ca9d1f00] overread, skip -6 enddists: -5 -5
frame=  831 fps=5.6 q=28.0 size=     512kB time=00:00:31.24 bitrate= 134.3kbits/s speed=0.212x    frame=  835 fps=5.6 q=28.0 size=     512kB time=00:00:31.40 bitrate= 133.6kbits/s speed=0.212x    frame=  839 fps=5.6 q=28.0 size=     512kB time=00:00:31.57 bitrate= 132.9kbits/s speed=0.212x    frame=  843 fps=5.7 q=28.0 size=     512kB time=00:00:31.74 bitrate= 132.1kbits/s speed=0.213x    frame=  847 fps=5.7 q=28.0 size=     512kB time=00:00:31.88 bitrate= 131.6kbits/s speed=0.213x    frame=  851 fps=5.7 q=28.0 size=     512kB time=00:00:32.04 bitrate= 130.9kbits/s speed=0.213x    frame=  855 fps=5.6 q=28.0 size=     512kB time=00:00:32.20 bitrate= 130.3kbits/s speed=0.213x    frame=  859 fps=5.6 q=28.0 size=     512kB time=00:00:32.36 bitrate= 129.6kbits/s speed=0.213x    frame=  863 fps=5.6 q=28.0 size=     512kB time=00:00:32.52 bitrate= 129.0kbits/s speed=0.213x    frame=  867 fps=5.6 q=28.0 size=     512kB time=00:00:32.68 bitrate= 128.4kbits/s speed=0.213x    frame=  871 fps=5.6 q=28.0 size=     512kB time=00:00:32.84 bitrate= 127.7kbits/s speed=0.213x    frame=  875 fps=5.6 q=28.0 size=     512kB time=00:00:33.00 bitrate= 127.1kbits/s speed=0.213x    frame=  879 fps=5.6 q=28.0 size=     512kB time=00:00:33.16 bitrate= 126.5kbits/s speed=0.213x    frame=  883 fps=5.6 q=28.0 size=     512kB time=00:00:33.32 bitrate= 125.9kbits/s speed=0.213x    frame=  887 fps=5.6 q=28.0 size=     512kB time=00:00:33.49 bitrate= 125.2kbits/s speed=0.213x    frame=  890 fps=5.6 q=28.0 size=     512kB time=00:00:33.60 bitrate= 124.8kbits/s speed=0.213x    frame=  893 fps=5.6 q=28.0 size=     512kB time=00:00:33.72 bitrate= 124.4kbits/s speed=0.213x    frame=  896 fps=5.6 q=28.0 size=     512kB time=00:00:33.87 bitrate= 123.8kbits/s speed=0.213x    frame=  899 fps=5.6 q=28.0 size=     512kB time=00:00:33.96 bitrate= 123.5kbits/s speed=0.213x    frame=  903 fps=5.6 q=28.0 size=     512kB time=00:00:34.12 bitrate= 122.9kbits/s speed=0.213x    frame=  907 fps=5.6 q=28.0 size=     512kB time=00:00:34.28 bitrate= 122.4kbits/s speed=0.213x    frame=  910 fps=5.6 q=28.0 size=     512kB time=00:00:34.43 bitrate= 121.8kbits/s speed=0.213x    frame=  915 fps=5.6 q=28.0 size=     512kB time=00:00:34.60 bitrate= 121.2kbits/s speed=0.213x    frame=  919 fps=5.6 q=28.0 size=     512kB time=00:00:34.76 bitrate= 120.7kbits/s speed=0.213x    frame=  923 fps=5.6 q=28.0 size=     512kB time=00:00:34.92 bitrate= 120.1kbits/s speed=0.214x    frame=  927 fps=5.6 q=28.0 size=     512kB time=00:00:35.08 bitrate= 119.6kbits/s speed=0.214x    frame=  931 fps=5.7 q=28.0 size=     512kB time=00:00:35.24 bitrate= 119.0kbits/s speed=0.214x    frame=  935 fps=5.7 q=28.0 size=     512kB time=00:00:35.41 bitrate= 118.4kbits/s speed=0.214x    frame=  939 fps=5.7 q=28.0 size=     512kB time=00:00:35.58 bitrate= 117.9kbits/s speed=0.214x    frame=  943 fps=5.7 q=28.0 size=     512kB time=00:00:35.72 bitrate= 117.4kbits/s speed=0.214x    frame=  947 fps=5.7 q=28.0 size=     512kB time=00:00:35.88 bitrate= 116.9kbits/s speed=0.214x    frame=  951 fps=5.7 q=28.0 size=     512kB time=00:00:36.04 bitrate= 116.4kbits/s speed=0.214x    [mp3float @ 0x5943ca9d1f00] overread, skip -7 enddists: -1 -1
frame=  955 fps=5.7 q=28.0 size=     512kB time=00:00:36.20 bitrate= 115.9kbits/s speed=0.214x    frame=  958 fps=5.7 q=28.0 size=     512kB time=00:00:36.35 bitrate= 115.4kbits/s speed=0.215x    frame=  961 fps=5.7 q=28.0 size=     512kB time=00:00:36.44 bitrate= 115.1kbits/s speed=0.214x    frame=  963 fps=5.6 q=28.0 size=     512kB time=00:00:36.52 bitrate= 114.9kbits/s speed=0.214x    frame=  966 fps=5.6 q=28.0 size=     512kB time=00:00:36.65 bitrate= 114.5kbits/s speed=0.214x    frame=  968 fps=5.6 q=28.0 size=     512kB time=00:00:36.73 bitrate= 114.2kbits/s speed=0.214x    frame=  972 fps=5.6 q=28.0 size=     512kB time=00:00:36.88 bitrate= 113.7kbits/s speed=0.214x    frame=  975 fps=5.6 q=28.0 size=     512kB time=00:00:37.00 bitrate= 113.4kbits/s speed=0.214x    frame=  979 fps=5.6 q=28.0 size=     512kB time=00:00:37.16 bitrate= 112.9kbits/s speed=0.214x    frame=  983 fps=5.6 q=28.0 size=     512kB time=00:00:37.33 bitrate= 112.4kbits/s speed=0.214x    frame=  986 fps=5.6 q=28.0 size=     512kB time=00:00:37.44 bitrate= 112.0kbits/s speed=0.214x    frame=  989 fps=5.6 q=28.0 size=     512kB time=00:00:37.56 bitrate= 111.7kbits/s speed=0.214x    frame=  993 fps=5.6 q=28.0 size=     512kB time=00:00:37.72 bitrate= 111.2kbits/s speed=0.214x    frame=  996 fps=5.6 q=28.0 size=     512kB time=00:00:37.84 bitrate= 110.9kbits/s speed=0.214x    frame=  999 fps=5.6 q=28.0 size=     512kB time=00:00:37.96 bitrate= 110.5kbits/s speed=0.214x    frame= 1003 fps=5.6 q=28.0 size=     512kB time=00:00:38.12 bitrate= 110.0kbits/s speed=0.214x    frame= 1007 fps=5.6 q=28.0 size=     512kB time=00:00:38.28 bitrate= 109.6kbits/s speed=0.214x    frame= 1011 fps=5.6 q=28.0 size=     512kB time=00:00:38.44 bitrate= 109.1kbits/s speed=0.214x    frame= 1015 fps=5.6 q=28.0 size=     512kB time=00:00:38.60 bitrate= 108.7kbits/s speed=0.214x    frame= 1019 fps=5.6 q=28.0 size=     512kB time=00:00:38.76 bitrate= 108.2kbits/s speed=0.214x    frame= 1023 fps=5.6 q=28.0 size=     512kB time=00:00:38.92 bitrate= 107.8kbits/s speed=0.214x    frame= 1027 fps=5.6 q=28.0 size=     512kB time=00:00:39.08 bitrate= 107.3kbits/s speed=0.214x    frame= 1032 fps=5.6 q=28.0 size=     512kB time=00:00:39.28 bitrate= 106.8kbits/s speed=0.214x    frame= 1036 fps=5.6 q=28.0 size=     512kB time=00:00:39.44 bitrate= 106.4kbits/s speed=0.215x    frame= 1039 fps=5.6 q=28.0 size=     512kB time=00:00:39.56 bitrate= 106.0kbits/s speed=0.215x    frame= 1043 fps=5.6 q=28.0 size=     512kB time=00:00:39.72 bitrate= 105.6kbits/s speed=0.215x    frame= 1045 fps=5.6 q=28.0 size=     512kB time=00:00:39.80 bitrate= 105.4kbits/s speed=0.215x    frame= 1048 fps=5.6 q=28.0 size=     768kB time=00:00:39.93 bitrate= 157.5kbits/s speed=0.215x    frame= 1052 fps=5.6 q=28.0 size=     768kB time=00:00:40.08 bitrate= 157.0kbits/s speed=0.215x    frame= 1055 fps=5.6 q=28.0 size=     768kB time=00:00:40.20 bitrate= 156.5kbits/s speed=0.215x    frame= 1059 fps=5.7 q=28.0 size=     768kB time=00:00:40.36 bitrate= 155.9kbits/s speed=0.215x    frame= 1062 fps=5.6 q=28.0 size=     768kB time=00:00:40.48 bitrate= 155.4kbits/s speed=0.215x    frame= 1066 fps=5.6 q=28.0 size=     768kB time=00:00:40.64 bitrate= 154.8kbits/s speed=0.215x    frame= 1070 fps=5.7 q=28.0 size=     768kB time=00:00:40.80 bitrate= 154.2kbits/s speed=0.216x    frame= 1075 fps=5.7 q=28.0 size=     768kB time=00:00:41.00 bitrate= 153.5kbits/s speed=0.216x    frame= 1078 fps=5.7 q=28.0 size=     768kB time=00:00:41.12 bitrate= 153.0kbits/s speed=0.216x    frame= 1082 fps=5.7 q=28.0 size=     768kB time=00:00:41.28 bitrate= 152.4kbits/s speed=0.216x    frame= 1087 fps=5.7 q=28.0 size=     768kB time=00:00:41.48 bitrate= 151.7kbits/s speed=0.217x    frame= 1091 fps=5.7 q=28.0 size=     768kB time=00:00:41.64 bitrate= 151.1kbits/s speed=0.217x    frame= 1093 fps=5.7 q=28.0 size=     768kB time=00:00:41.72 bitrate= 150.8kbits/s speed=0.217x    frame= 1097 fps=5.7 q=28.0 size=     768kB time=00:00:41.88 bitrate= 150.2kbits/s speed=0.217x    frame= 1101 fps=5.7 q=28.0 size=     768kB time=00:00:42.04 bitrate= 149.7kbits/s speed=0.217x    frame= 1107 fps=5.7 q=28.0 size=     768kB time=00:00:42.28 bitrate= 148.8kbits/s speed=0.217x    frame= 1111 fps=5.7 q=28.0 size=     768kB time=00:00:42.44 bitrate= 148.3kbits/s speed=0.218x    frame= 1116 fps=5.7 q=28.0 size=     768kB time=00:00:42.64 bitrate= 147.6kbits/s speed=0.218x    frame= 1119 fps=5.7 q=28.0 size=     768kB time=00:00:42.76 bitrate= 147.1kbits/s speed=0.218x    frame= 1123 fps=5.7 q=28.0 size=     768kB time=00:00:42.92 bitrate= 146.6kbits/s speed=0.218x    frame= 1127 fps=5.7 q=28.0 size=     768kB time=00:00:43.09 bitrate= 146.0kbits/s speed=0.218x    frame= 1131 fps=5.7 q=28.0 size=     768kB time=00:00:43.26 bitrate= 145.4kbits/s speed=0.218x    frame= 1135 fps=5.7 q=28.0 size=     768kB time=00:00:43.40 bitrate= 145.0kbits/s speed=0.219x    frame= 1139 fps=5.7 q=28.0 size=     768kB time=00:00:43.56 bitrate= 144.4kbits/s speed=0.219x    frame= 1144 fps=5.7 q=28.0 size=     768kB time=00:00:43.76 bitrate= 143.8kbits/s speed=0.219x    frame= 1148 fps=5.7 q=28.0 size=     768kB time=00:00:43.92 bitrate= 143.3kbits/s speed=0.219x    frame= 1153 fps=5.7 q=28.0 size=     768kB time=00:00:44.12 bitrate= 142.6kbits/s speed=0.22x    frame= 1157 fps=5.7 q=28.0 size=     768kB time=00:00:44.28 bitrate= 142.1kbits/s speed=0.22x    frame= 1163 fps=5.8 q=28.0 size=     768kB time=00:00:44.52 bitrate= 141.3kbits/s speed=0.22x    frame= 1167 fps=5.8 q=28.0 size=     768kB time=00:00:44.68 bitrate= 140.8kbits/s speed=0.221x    frame= 1172 fps=5.8 q=28.0 size=     768kB time=00:00:44.88 bitrate= 140.2kbits/s speed=0.221x    frame= 1177 fps=5.8 q=28.0 size=     768kB time=00:00:45.08 bitrate= 139.6kbits/s speed=0.221x    frame= 1182 fps=5.8 q=28.0 size=     768kB time=00:00:45.28 bitrate= 139.0kbits/s speed=0.221x    frame= 1187 fps=5.8 q=28.0 size=     768kB time=00:00:45.48 bitrate= 138.3kbits/s speed=0.222x    frame= 1190 fps=5.8 q=28.0 size=     768kB time=00:00:45.60 bitrate= 138.0kbits/s speed=0.222x    frame= 1194 fps=5.8 q=28.0 size=     768kB time=00:00:45.78 bitrate= 137.4kbits/s speed=0.222x    frame= 1198 fps=5.8 q=28.0 size=     768kB time=00:00:45.95 bitrate= 136.9kbits/s speed=0.222x    frame= 1203 fps=5.8 q=28.0 size=     768kB time=00:00:46.12 bitrate= 136.4kbits/s speed=0.223x    frame= 1208 fps=5.8 q=28.0 size=     768kB time=00:00:46.33 bitrate= 135.8kbits/s speed=0.223x    frame= 1212 fps=5.8 q=28.0 size=     768kB time=00:00:46.48 bitrate= 135.4kbits/s speed=0.223x    frame= 1217 fps=5.8 q=28.0 size=     768kB time=00:00:46.72 bitrate= 134.7kbits/s speed=0.224x    frame= 1222 fps=5.8 q=28.0 size=     768kB time=00:00:46.88 bitrate= 134.2kbits/s speed=0.224x    frame= 1225 fps=5.7 q=-1.0 Lsize=     964kB time=00:00:48.98 bitrate= 161.3kbits/s speed=0.229x    
video:238kB audio:696kB subtitle:0kB other streams:0kB global headers:0kB muxing overhead: 3.323544%
[libx264 @ 0x5943caee9900] frame I:5     Avg QP: 7.04  size: 29555
[libx264 @ 0x5943caee9900] frame P:308   Avg QP: 6.22  size:    80
[libx264 @ 0x5943caee9900] frame B:912   Avg QP: 9.67  size:    77
[libx264 @ 0x5943caee9900] consecutive B-frames:  0.7%  0.0%  0.0% 99.3%
[libx264 @ 0x5943caee9900] mb I  I16..4: 78.2% 15.1%  6.6%
[libx264 @ 0x5943caee9900] mb P  I16..4:  0.0%  0.0%  0.0%  P16..4:  0.0%  0.0%  0.0%  0.0%  0.0%    skip:100.0%
[libx264 @ 0x5943caee9900] mb B  I16..4:  0.0%  0.0%  0.0%  B16..8:  0.1%  0.0%  0.0%  direct: 0.0%  skip:99.9%  L0:15.1% L1:84.9% BI: 0.0%
[libx264 @ 0x5943caee9900] 8x8 transform intra:15.1% inter:28.8%
[libx264 @ 0x5943caee9900] coded y,uvDC,uvAC intra: 5.2% 4.4% 4.2% inter: 0.0% 0.0% 0.0%
[libx264 @ 0x5943caee9900] i16 v,h,dc,p: 96%  2%  2%  0%
[libx264 @ 0x5943caee9900] i8 v,h,dc,ddl,ddr,vr,hd,vl,hu: 37% 11% 52%  0%  0%  0%  0%  0%  0%
[libx264 @ 0x5943caee9900] i4 v,h,dc,ddl,ddr,vr,hd,vl,hu: 29% 21% 26%  4%  4%  5%  4%  4%  4%
[libx264 @ 0x5943caee9900] i8c dc,h,v,p: 96%  2%  2%  0%
[libx264 @ 0x5943caee9900] Weighted P-Frames: Y:0.0% UV:0.0%
[libx264 @ 0x5943caee9900] ref P L0: 85.2%  3.4% 11.4%
[libx264 @ 0x5943caee9900] ref B L0: 30.2% 69.8%
[libx264 @ 0x5943caee9900] ref B L1: 100.0%  0.0%
[libx264 @ 0x5943caee9900] kb/s:39.62
[aac @ 0x5943caeeb5c0] Qavg: 65533.836
ffmpeg version 4.4.2-0ubuntu0.22.04.1 Copyright (c) 2000-2021 the FFmpeg developers
  built with gcc 11 (Ubuntu 11.2.0-19ubuntu1)
  configuration: --prefix=/usr --extra-version=0ubuntu0.22.04.1 --toolchain=hardened --libdir=/usr/lib/x86_64-linux-gnu --incdir=/usr/include/x86_64-linux-gnu --arch=amd64 --enable-gpl --disable-stripping --enable-gnutls --enable-ladspa --enable-libaom --enable-libass --enable-libbluray --enable-libbs2b --enable-libcaca --enable-libcdio --enable-libcodec2 --enable-libdav1d --enable-libflite --enable-libfontconfig --enable-libfreetype --enable-libfribidi --enable-libgme --enable-libgsm --enable-libjack --enable-libmp3lame --enable-libmysofa --enable-libopenjpeg --enable-libopenmpt --enable-libopus --enable-libpulse --enable-librabbitmq --enable-librubberband --enable-libshine --enable-libsnappy --enable-libsoxr --enable-libspeex --enable-libsrt --enable-libssh --enable-libtheora --enable-libtwolame --enable-libvidstab --enable-libvorbis --enable-libvpx --enable-libwebp --enable-libx265 --enable-libxml2 --enable-libxvid --enable-libzimg --enable-libzmq --enable-libzvbi --enable-lv2 --enable-omx --enable-openal --enable-opencl --enable-opengl --enable-sdl2 --enable-pocketsphinx --enable-librsvg --enable-libmfx --enable-libdc1394 --enable-libdrm --enable-libiec61883 --enable-chromaprint --enable-frei0r --enable-libx264 --enable-shared
  libavutil      56. 70.100 / 56. 70.100
  libavcodec     58.134.100 / 58.134.100
  libavformat    58. 76.100 / 58. 76.100
  libavdevice    58. 13.100 / 58. 13.100
  libavfilter     7.110.100 /  7.110.100
  libswscale      5.  9.100 /  5.  9.100
  libswresample   3.  9.100 /  3.  9.100
  libpostproc    55.  9.100 / 55.  9.100
Input #0, png_pipe, from 'visuals/wheel_t2_5.png':
  Duration: N/A, bitrate: N/A
  Stream #0:0: Video: png, rgba(pc), 1800x1800 [SAR 11811:11811 DAR 1:1], 25 fps, 25 tbr, 25 tbn, 25 tbc
[mp3 @ 0x5e56a3ed5440] Estimating duration from bitrate, this may be inaccurate
Input #1, mp3, from 'audio/section_5.mp3':
  Duration: 00:00:32.42, start: 0.000000, bitrate: 48 kb/s
  Stream #1:0: Audio: mp3, 24000 Hz, mono, fltp, 48 kb/s
Stream mapping:
  Stream #0:0 -> #0:0 (png (native) -> h264 (libx264))
  Stream #1:0 -> #0:1 (mp3 (mp3float) -> aac (native))
[swscaler @ 0x5e56a3fc7b80] Warning: data is not aligned! This can lead to a speed loss
[libx264 @ 0x5e56a3ed9b00] using SAR=1/1
[libx264 @ 0x5e56a3ed9b00] using cpu capabilities: MMX2 SSE2Fast SSSE3 SSE4.2 AVX FMA3 BMI2 AVX2
[libx264 @ 0x5e56a3ed9b00] profile High, level 4.0, 4:2:0, 8-bit
[libx264 @ 0x5e56a3ed9b00] 264 - core 163 r3060 5db6aa6 - H.264/MPEG-4 AVC codec - Copyleft 2003-2021 - http://www.videolan.org/x264.html - options: cabac=1 ref=3 deblock=1:-3:-3 analyse=0x3:0x113 me=hex subme=7 psy=1 psy_rd=2.00:0.70 mixed_ref=1 me_range=16 chroma_me=1 trellis=1 8x8dct=1 cqm=0 deadzone=21,11 fast_pskip=1 chroma_qp_offset=-4 threads=3 lookahead_threads=1 sliced_threads=0 nr=0 decimate=1 interlaced=0 bluray_compat=0 constrained_intra=0 bframes=3 b_pyramid=2 b_adapt=1 b_bias=0 direct=1 weightb=1 open_gop=0 weightp=2 keyint=250 keyint_min=25 scenecut=40 intra_refresh=0 rc_lookahead=40 rc=crf mbtree=1 crf=23.0 qcomp=0.60 qpmin=0 qpmax=69 qpstep=4 ip_ratio=1.40 aq=1:1.20
[aac @ 0x5e56a3edb0c0] Too many bits 8192.000000 > 6144 per frame requested, clamping to max
Output #0, mp4, to 'seg5.mp4':
  Metadata:
    encoder         : Lavf58.76.100
  Stream #0:0: Video: h264 (avc1 / 0x31637661), yuv420p(tv, progressive), 1920x1080 [SAR 1:1 DAR 16:9], q=2-31, 25 fps, 12800 tbn
    Metadata:
      encoder         : Lavc58.134.100 libx264
    Side data:
      cpb: bitrate max/min/avg: 0/0/0 buffer size: 0 vbv_delay: N/A
  Stream #0:1: Audio: aac (LC) (mp4a / 0x6134706D), 24000 Hz, mono, fltp, 144 kb/s
    Metadata:
      encoder         : Lavc58.134.100 aac
frame=    1 fps=0.0 q=0.0 size=       0kB time=00:00:00.00 bitrate=N/A speed=   0x    frame=   10 fps=0.0 q=0.0 size=       0kB time=00:00:00.00 bitrate=N/A speed=   0x    frame=   17 fps= 13 q=0.0 size=       0kB time=00:00:00.00 bitrate=N/A speed=   0x    frame=   22 fps= 12 q=0.0 size=       0kB time=00:00:00.00 bitrate=N/A speed=   0x    frame=   28 fps= 12 q=0.0 size=       0kB time=00:00:00.00 bitrate=N/A speed=   0x    frame=   36 fps= 13 q=0.0 size=       0kB time=00:00:00.00 bitrate=N/A speed=   0x    frame=   43 fps= 13 q=0.0 size=       0kB time=00:00:00.00 bitrate=N/A speed=   0x    frame=   47 fps= 11 q=0.0 size=       0kB time=00:00:00.00 bitrate=N/A speed=   0x    frame=   48 fps=9.8 q=28.0 size=       0kB time=00:00:00.00 bitrate=N/A speed=   0x    frame=   53 fps=9.6 q=28.0 size=       0kB time=00:00:00.12 bitrate=   3.2kbits/s speed=0.0218x    frame=   57 fps=9.5 q=28.0 size=       0kB time=00:00:00.28 bitrate=   1.4kbits/s speed=0.0466x    frame=   61 fps=9.3 q=28.0 size=       0kB time=00:00:00.46 bitrate=   0.8kbits/s speed=0.0714x    [mp3float @ 0x5e56a3eccc00] overread, skip -6 enddists: -5 -5
frame=   65 fps=9.0 q=28.0 size=       0kB time=00:00:00.64 bitrate=   0.6kbits/s speed=0.0891x    frame=   69 fps=8.9 q=28.0 size=       0kB time=00:00:00.76 bitrate=   0.5kbits/s speed=0.0979x    frame=   74 fps=8.9 q=28.0 size=       0kB time=00:00:00.96 bitrate=   0.4kbits/s speed=0.115x    frame=   81 fps=8.9 q=28.0 size=       0kB time=00:00:01.24 bitrate=   0.3kbits/s speed=0.136x    frame=   86 fps=8.9 q=28.0 size=       0kB time=00:00:01.44 bitrate=   0.3kbits/s speed=0.15x    frame=   91 fps=9.0 q=28.0 size=       0kB time=00:00:01.64 bitrate=   0.2kbits/s speed=0.162x    frame=   96 fps=9.0 q=28.0 size=       0kB time=00:00:01.84 bitrate=   0.2kbits/s speed=0.173x    frame=  100 fps=8.9 q=28.0 size=       0kB time=00:00:02.00 bitrate=   0.2kbits/s speed=0.179x    frame=  105 fps=8.8 q=28.0 size=       0kB time=00:00:02.20 bitrate=   0.2kbits/s speed=0.184x    frame=  110 fps=8.8 q=28.0 size=       0kB time=00:00:02.40 bitrate=   0.2kbits/s speed=0.191x    frame=  115 fps=8.8 q=28.0 size=       0kB time=00:00:02.60 bitrate=   0.1kbits/s speed=0.198x    frame=  120 fps=8.8 q=28.0 size=       0kB time=00:00:02.80 bitrate=   0.1kbits/s speed=0.205x    frame=  125 fps=8.8 q=28.0 size=       0kB time=00:00:03.00 bitrate=   0.1kbits/s speed=0.21x    frame=  129 fps=8.6 q=28.0 size=       0kB time=00:00:03.16 bitrate=   0.1kbits/s speed=0.212x    frame=  132 fps=8.5 q=28.0 size=       0kB time=00:00:03.28 bitrate=   0.1kbits/s speed=0.212x    frame=  135 fps=8.4 q=28.0 size=       0kB time=00:00:03.40 bitrate=   0.1kbits/s speed=0.212x    frame=  138 fps=8.3 q=28.0 size=       0kB time=00:00:03.54 bitrate=   0.1kbits/s speed=0.212x    frame=  142 fps=8.3 q=28.0 size=       0kB time=00:00:03.71 bitrate=   0.1kbits/s speed=0.216x    frame=  145 fps=8.2 q=28.0 size=       0kB time=00:00:03.80 bitrate=   0.1kbits/s speed=0.215x    frame=  149 fps=8.1 q=28.0 size=       0kB time=00:00:03.96 bitrate=   0.1kbits/s speed=0.215x    frame=  152 fps=8.0 q=28.0 size=       0kB time=00:00:04.09 bitrate=   0.1kbits/s speed=0.216x    frame=  155 fps=8.0 q=28.0 size=       0kB time=00:00:04.20 bitrate=   0.1kbits/s speed=0.216x    frame=  158 fps=7.9 q=28.0 size=       0kB time=00:00:04.32 bitrate=   0.1kbits/s speed=0.216x    frame=  161 fps=7.8 q=28.0 size=       0kB time=00:00:04.48 bitrate=   0.1kbits/s speed=0.217x    frame=  164 fps=7.7 q=28.0 size=       0kB time=00:00:04.56 bitrate=   0.1kbits/s speed=0.214x    frame=  168 fps=7.7 q=28.0 size=       0kB time=00:00:04.72 bitrate=   0.1kbits/s speed=0.216x    frame=  173 fps=7.7 q=28.0 size=       0kB time=00:00:04.92 bitrate=   0.1kbits/s speed=0.219x    frame=  177 fps=7.7 q=28.0 size=       0kB time=00:00:05.08 bitrate=   0.1kbits/s speed=0.221x    frame=  181 fps=7.7 q=28.0 size=       0kB time=00:00:05.24 bitrate=   0.1kbits/s speed=0.224x    frame=  185 fps=7.7 q=28.0 size=       0kB time=00:00:05.40 bitrate=   0.1kbits/s speed=0.225x    frame=  189 fps=7.7 q=28.0 size=       0kB time=00:00:05.56 bitrate=   0.1kbits/s speed=0.227x    frame=  193 fps=7.7 q=28.0 size=       0kB time=00:00:05.72 bitrate=   0.1kbits/s speed=0.228x    frame=  197 fps=7.7 q=28.0 size=       0kB time=00:00:05.88 bitrate=   0.1kbits/s speed=0.229x    frame=  203 fps=7.7 q=28.0 size=       0kB time=00:00:06.12 bitrate=   0.1kbits/s speed=0.233x    frame=  207 fps=7.7 q=28.0 size=       0kB time=00:00:06.28 bitrate=   0.1kbits/s speed=0.234x    frame=  211 fps=7.7 q=28.0 size=       0kB time=00:00:06.44 bitrate=   0.1kbits/s speed=0.235x    frame=  215 fps=7.7 q=28.0 size=       0kB time=00:00:06.61 bitrate=   0.1kbits/s speed=0.237x    frame=  219 fps=7.7 q=28.0 size=       0kB time=00:00:06.78 bitrate=   0.1kbits/s speed=0.238x    frame=  224 fps=7.7 q=28.0 size=       0kB time=00:00:06.99 bitrate=   0.1kbits/s speed=0.241x    frame=  230 fps=7.7 q=28.0 size=       0kB time=00:00:07.20 bitrate=   0.1kbits/s speed=0.242x    frame=  234 fps=7.7 q=28.0 size=       0kB time=00:00:07.38 bitrate=   0.1kbits/s speed=0.243x    frame=  239 fps=7.7 q=28.0 size=       0kB time=00:00:07.56 bitrate=   0.1kbits/s speed=0.245x    frame=  245 fps=7.8 q=28.0 size=       0kB time=00:00:07.80 bitrate=   0.0kbits/s speed=0.248x    frame=  250 fps=7.8 q=28.0 size=       0kB time=00:00:08.00 bitrate=   0.0kbits/s speed=0.25x    frame=  257 fps=7.9 q=28.0 size=       0kB time=00:00:08.32 bitrate=   0.0kbits/s speed=0.255x    frame=  263 fps=7.9 q=28.0 size=       0kB time=00:00:08.53 bitrate=   0.0kbits/s speed=0.257x    frame=  269 fps=8.0 q=28.0 size=       0kB time=00:00:08.76 bitrate=   0.0kbits/s speed=0.259x    frame=  276 fps=8.0 q=28.0 size=       0kB time=00:00:09.04 bitrate=   0.0kbits/s speed=0.263x    frame=  282 fps=8.1 q=28.0 size=       0kB time=00:00:09.30 bitrate=   0.0kbits/s speed=0.266x    frame=  287 fps=8.1 q=28.0 size=       0kB time=00:00:09.48 bitrate=   0.0kbits/s speed=0.267x    frame=  292 fps=8.1 q=28.0 size=       0kB time=00:00:09.68 bitrate=   0.0kbits/s speed=0.269x    frame=  298 fps=8.1 q=28.0 size=       0kB time=00:00:09.92 bitrate=   0.0kbits/s speed=0.27x    frame=  305 fps=8.2 q=28.0 size=       0kB time=00:00:10.24 bitrate=   0.0kbits/s speed=0.275x    frame=  312 fps=8.3 q=28.0 size=       0kB time=00:00:10.48 bitrate=   0.0kbits/s speed=0.277x    frame=  318 fps=8.3 q=28.0 size=       0kB time=00:00:10.72 bitrate=   0.0kbits/s speed=0.28x    frame=  325 fps=8.4 q=28.0 size=       0kB time=00:00:11.00 bitrate=   0.0kbits/s speed=0.284x    frame=  334 fps=8.5 q=28.0 size=     256kB time=00:00:11.39 bitrate= 184.1kbits/s speed=0.29x    frame=  341 fps=8.6 q=28.0 size=     256kB time=00:00:11.64 bitrate= 180.2kbits/s speed=0.292x    frame=  351 fps=8.7 q=28.0 size=     256kB time=00:00:12.04 bitrate= 174.2kbits/s speed=0.298x    frame=  359 fps=8.8 q=28.0 size=     256kB time=00:00:12.37 bitrate= 169.5kbits/s speed=0.302x    frame=  368 fps=8.9 q=28.0 size=     256kB time=00:00:12.75 bitrate= 164.4kbits/s speed=0.307x    frame=  377 fps=9.0 q=28.0 size=     256kB time=00:00:13.08 bitrate= 160.4kbits/s speed=0.311x    frame=  385 fps=9.0 q=28.0 size=     256kB time=00:00:13.40 bitrate= 156.5kbits/s speed=0.315x    frame=  393 fps=9.1 q=28.0 size=     256kB time=00:00:13.72 bitrate= 152.9kbits/s speed=0.318x    frame=  400 fps=9.2 q=28.0 size=     256kB time=00:00:14.00 bitrate= 149.8kbits/s speed=0.321x    frame=  409 fps=9.3 q=28.0 size=     256kB time=00:00:14.36 bitrate= 146.1kbits/s speed=0.325x    frame=  419 fps=9.4 q=28.0 size=     256kB time=00:00:14.76 bitrate= 142.1kbits/s speed=0.33x    frame=  426 fps=9.4 q=28.0 size=     256kB time=00:00:15.06 bitrate= 139.3kbits/s speed=0.332x    frame=  435 fps=9.5 q=28.0 size=     256kB time=00:00:15.40 bitrate= 136.2kbits/s speed=0.335x    frame=  444 fps=9.5 q=28.0 size=     256kB time=00:00:15.76 bitrate= 133.1kbits/s speed=0.339x    frame=  453 fps=9.6 q=28.0 size=     256kB time=00:00:16.12 bitrate= 130.1kbits/s speed=0.343x    frame=  460 fps=9.7 q=28.0 size=     256kB time=00:00:16.40 bitrate= 127.9kbits/s speed=0.345x    frame=  468 fps=9.7 q=28.0 size=     256kB time=00:00:16.72 bitrate= 125.5kbits/s speed=0.347x    frame=  477 fps=9.8 q=28.0 size=     256kB time=00:00:17.08 bitrate= 122.8kbits/s speed=0.351x    frame=  486 fps=9.9 q=28.0 size=     256kB time=00:00:17.44 bitrate= 120.3kbits/s speed=0.354x    frame=  495 fps=9.9 q=28.0 size=     256kB time=00:00:17.80 bitrate= 117.8kbits/s speed=0.358x    frame=  504 fps= 10 q=28.0 size=     256kB time=00:00:18.16 bitrate= 115.5kbits/s speed=0.361x    frame=  513 fps= 10 q=28.0 size=     256kB time=00:00:18.52 bitrate= 113.3kbits/s speed=0.364x    frame=  520 fps= 10 q=28.0 size=     256kB time=00:00:18.80 bitrate= 111.6kbits/s speed=0.366x    frame=  529 fps= 10 q=28.0 size=     256kB time=00:00:19.16 bitrate= 109.5kbits/s speed=0.369x    frame=  541 fps= 10 q=28.0 size=     256kB time=00:00:19.66 bitrate= 106.6kbits/s speed=0.375x    frame=  551 fps= 10 q=28.0 size=     256kB time=00:00:20.05 bitrate= 104.6kbits/s speed=0.379x    frame=  564 fps= 11 q=28.0 size=     256kB time=00:00:20.56 bitrate= 102.0kbits/s speed=0.385x    [mp3float @ 0x5e56a3eccc00] overread, skip -6 enddists: -5 -5
frame=  574 fps= 11 q=28.0 size=     256kB time=00:00:20.99 bitrate=  99.9kbits/s speed=0.389x    frame=  588 fps= 11 q=28.0 size=     256kB time=00:00:21.52 bitrate=  97.5kbits/s speed=0.395x    frame=  604 fps= 11 q=28.0 size=     256kB time=00:00:22.16 bitrate=  94.7kbits/s speed=0.403x    frame=  619 fps= 11 q=28.0 size=     256kB time=00:00:22.76 bitrate=  92.2kbits/s speed=0.41x    frame=  632 fps= 11 q=28.0 size=     256kB time=00:00:23.29 bitrate=  90.0kbits/s speed=0.416x    frame=  647 fps= 11 q=28.0 size=     256kB time=00:00:23.89 bitrate=  87.8kbits/s speed=0.423x    frame=  661 fps= 12 q=28.0 size=     256kB time=00:00:24.44 bitrate=  85.8kbits/s speed=0.429x    frame=  676 fps= 12 q=28.0 size=     512kB time=00:00:25.04 bitrate= 167.5kbits/s speed=0.435x    frame=  688 fps= 12 q=28.0 size=     512kB time=00:00:25.52 bitrate= 164.4kbits/s speed=0.44x    frame=  703 fps= 12 q=28.0 size=     512kB time=00:00:26.12 bitrate= 160.6kbits/s speed=0.446x    frame=  718 fps= 12 q=28.0 size=     512kB time=00:00:26.75 bitrate= 156.8kbits/s speed=0.453x    [mp3float @ 0x5e56a3eccc00] overread, skip -7 enddists: -3 -3
frame=  733 fps= 12 q=28.0 size=     512kB time=00:00:27.34 bitrate= 153.4kbits/s speed=0.459x    frame=  749 fps= 12 q=28.0 size=     512kB time=00:00:27.96 bitrate= 150.0kbits/s speed=0.465x    frame=  763 fps= 13 q=28.0 size=     512kB time=00:00:28.52 bitrate= 147.1kbits/s speed=0.47x    frame=  778 fps= 13 q=28.0 size=     512kB time=00:00:29.12 bitrate= 144.0kbits/s speed=0.476x    frame=  792 fps= 13 q=28.0 size=     512kB time=00:00:29.68 bitrate= 141.3kbits/s speed=0.481x    frame=  805 fps= 13 q=28.0 size=     512kB time=00:00:30.20 bitrate= 138.9kbits/s speed=0.486x    frame=  811 fps= 13 q=-1.0 Lsize=     690kB time=00:00:32.38 bitrate= 174.4kbits/s speed=0.516x    
video:210kB audio:458kB subtitle:0kB other streams:0kB global headers:0kB muxing overhead: 3.143419%
[libx264 @ 0x5e56a3ed9b00] frame I:4     Avg QP: 7.27  size: 37714
[libx264 @ 0x5e56a3ed9b00] frame P:204   Avg QP:14.21  size:    84
[libx264 @ 0x5e56a3ed9b00] frame B:603   Avg QP: 9.67  size:    77
[libx264 @ 0x5e56a3ed9b00] consecutive B-frames:  0.9%  0.0%  0.0% 99.1%
[libx264 @ 0x5e56a3ed9b00] mb I  I16..4: 78.5% 13.6%  7.9%
[libx264 @ 0x5e56a3ed9b00] mb P  I16..4:  0.0%  0.0%  0.0%  P16..4:  0.0%  0.0%  0.0%  0.0%  0.0%    skip:100.0%
[libx264 @ 0x5e56a3ed9b00] mb B  I16..4:  0.0%  0.0%  0.0%  B16..8:  0.1%  0.0%  0.0%  direct: 0.0%  skip:99.9%  L0:79.8% L1:20.2% BI: 0.0%
[libx264 @ 0x5e56a3ed9b00] 8x8 transform intra:13.6% inter:51.1%
[libx264 @ 0x5e56a3ed9b00] coded y,uvDC,uvAC intra: 5.9% 5.5% 5.3% inter: 0.0% 0.0% 0.0%
[libx264 @ 0x5e56a3ed9b00] i16 v,h,dc,p: 96%  2%  2%  0%
[libx264 @ 0x5e56a3ed9b00] i8 v,h,dc,ddl,ddr,vr,hd,vl,hu: 44%  5% 51%  0%  0%  0%  0%  0%  0%
[libx264 @ 0x5e56a3ed9b00] i4 v,h,dc,ddl,ddr,vr,hd,vl,hu: 32% 19% 25%  5%  4%  4%  4%  4%  4%
[libx264 @ 0x5e56a3ed9b00] i8c dc,h,v,p: 92%  5%  2%  0%
[libx264 @ 0x5e56a3ed9b00] Weighted P-Frames: Y:0.0% UV:0.0%
[libx264 @ 0x5e56a3ed9b00] ref P L0: 98.1%  0.4%  1.5%
[libx264 @ 0x5e56a3ed9b00] ref B L0: 15.6% 84.4%
[libx264 @ 0x5e56a3ed9b00] ref B L1: 99.6%  0.4%
[libx264 @ 0x5e56a3ed9b00] kb/s:52.91
[aac @ 0x5e56a3edb0c0] Qavg: 65532.188
ffmpeg version 4.4.2-0ubuntu0.22.04.1 Copyright (c) 2000-2021 the FFmpeg developers
  built with gcc 11 (Ubuntu 11.2.0-19ubuntu1)
  configuration: --prefix=/usr --extra-version=0ubuntu0.22.04.1 --toolchain=hardened --libdir=/usr/lib/x86_64-linux-gnu --incdir=/usr/include/x86_64-linux-gnu --arch=amd64 --enable-gpl --disable-stripping --enable-gnutls --enable-ladspa --enable-libaom --enable-libass --enable-libbluray --enable-libbs2b --enable-libcaca --enable-libcdio --enable-libcodec2 --enable-libdav1d --enable-libflite --enable-libfontconfig --enable-libfreetype --enable-libfribidi --enable-libgme --enable-libgsm --enable-libjack --enable-libmp3lame --enable-libmysofa --enable-libopenjpeg --enable-libopenmpt --enable-libopus --enable-libpulse --enable-librabbitmq --enable-librubberband --enable-libshine --enable-libsnappy --enable-libsoxr --enable-libspeex --enable-libsrt --enable-libssh --enable-libtheora --enable-libtwolame --enable-libvidstab --enable-libvorbis --enable-libvpx --enable-libwebp --enable-libx265 --enable-libxml2 --enable-libxvid --enable-libzimg --enable-libzmq --enable-libzvbi --enable-lv2 --enable-omx --enable-openal --enable-opencl --enable-opengl --enable-sdl2 --enable-pocketsphinx --enable-librsvg --enable-libmfx --enable-libdc1394 --enable-libdrm --enable-libiec61883 --enable-chromaprint --enable-frei0r --enable-libx264 --enable-shared
  libavutil      56. 70.100 / 56. 70.100
  libavcodec     58.134.100 / 58.134.100
  libavformat    58. 76.100 / 58. 76.100
  libavdevice    58. 13.100 / 58. 13.100
  libavfilter     7.110.100 /  7.110.100
  libswscale      5.  9.100 /  5.  9.100
  libswresample   3.  9.100 /  3.  9.100
  libpostproc    55.  9.100 / 55.  9.100
Input #0, png_pipe, from 'visuals/slide_caveat.png':
  Duration: N/A, bitrate: N/A
  Stream #0:0: Video: png, rgb24(pc), 1920x1080, 25 fps, 25 tbr, 25 tbn, 25 tbc
[mp3 @ 0x5f34f4bcaa80] Estimating duration from bitrate, this may be inaccurate
Input #1, mp3, from 'audio/section_6.mp3':
  Duration: 00:00:50.06, start: 0.000000, bitrate: 48 kb/s
  Stream #1:0: Audio: mp3, 24000 Hz, mono, fltp, 48 kb/s
Stream mapping:
  Stream #0:0 -> #0:0 (png (native) -> h264 (libx264))
  Stream #1:0 -> #0:1 (mp3 (mp3float) -> aac (native))
[libx264 @ 0x5f34f4c299c0] using cpu capabilities: MMX2 SSE2Fast SSSE3 SSE4.2 AVX FMA3 BMI2 AVX2
[libx264 @ 0x5f34f4c299c0] profile High, level 4.0, 4:2:0, 8-bit
[libx264 @ 0x5f34f4c299c0] 264 - core 163 r3060 5db6aa6 - H.264/MPEG-4 AVC codec - Copyleft 2003-2021 - http://www.videolan.org/x264.html - options: cabac=1 ref=3 deblock=1:-3:-3 analyse=0x3:0x113 me=hex subme=7 psy=1 psy_rd=2.00:0.70 mixed_ref=1 me_range=16 chroma_me=1 trellis=1 8x8dct=1 cqm=0 deadzone=21,11 fast_pskip=1 chroma_qp_offset=-4 threads=3 lookahead_threads=1 sliced_threads=0 nr=0 decimate=1 interlaced=0 bluray_compat=0 constrained_intra=0 bframes=3 b_pyramid=2 b_adapt=1 b_bias=0 direct=1 weightb=1 open_gop=0 weightp=2 keyint=250 keyint_min=25 scenecut=40 intra_refresh=0 rc_lookahead=40 rc=crf mbtree=1 crf=23.0 qcomp=0.60 qpmin=0 qpmax=69 qpstep=4 ip_ratio=1.40 aq=1:1.20
[aac @ 0x5f34f4c2ad00] Too many bits 8192.000000 > 6144 per frame requested, clamping to max
Output #0, mp4, to 'seg6.mp4':
  Metadata:
    encoder         : Lavf58.76.100
  Stream #0:0: Video: h264 (avc1 / 0x31637661), yuv420p(tv, progressive), 1920x1080, q=2-31, 25 fps, 12800 tbn
    Metadata:
      encoder         : Lavc58.134.100 libx264
    Side data:
      cpb: bitrate max/min/avg: 0/0/0 buffer size: 0 vbv_delay: N/A
  Stream #0:1: Audio: aac (LC) (mp4a / 0x6134706D), 24000 Hz, mono, fltp, 144 kb/s
    Metadata:
      encoder         : Lavc58.134.100 aac
frame=    1 fps=0.0 q=0.0 size=       0kB time=00:00:00.00 bitrate=N/A speed=   0x    frame=   37 fps=0.0 q=0.0 size=       0kB time=00:00:00.00 bitrate=N/A speed=   0x    [mp3float @ 0x5f34f4764b00] overread, skip -6 enddists: -4 -4
frame=   56 fps= 53 q=28.0 size=       0kB time=00:00:00.25 bitrate=   1.5kbits/s speed=0.241x    frame=   79 fps= 50 q=28.0 size=       0kB time=00:00:01.16 bitrate=   0.3kbits/s speed=0.738x    frame=  103 fps= 49 q=28.0 size=       0kB time=00:00:02.12 bitrate=   0.2kbits/s speed=1.01x    [mp3float @ 0x5f34f4764b00] overread, skip -6 enddists: -1 -1
frame=  128 fps= 49 q=28.0 size=       0kB time=00:00:03.15 bitrate=   0.1kbits/s speed=1.21x    frame=  152 fps= 49 q=28.0 size=       0kB time=00:00:04.09 bitrate=   0.1kbits/s speed=1.31x    frame=  176 fps= 49 q=28.0 size=       0kB time=00:00:05.07 bitrate=   0.1kbits/s speed= 1.4x    frame=  200 fps= 48 q=28.0 size=       0kB time=00:00:06.01 bitrate=   0.1kbits/s speed=1.46x    frame=  224 fps= 48 q=28.0 size=       0kB time=00:00:06.99 bitrate=   0.1kbits/s speed= 1.5x    frame=  249 fps= 48 q=28.0 size=       0kB time=00:00:07.96 bitrate=   0.0kbits/s speed=1.54x    frame=  273 fps= 48 q=28.0 size=       0kB time=00:00:08.92 bitrate=   0.0kbits/s speed=1.57x    frame=  297 fps= 48 q=28.0 size=       0kB time=00:00:09.88 bitrate=   0.0kbits/s speed=1.59x    frame=  320 fps= 48 q=28.0 size=       0kB time=00:00:10.83 bitrate=   0.0kbits/s speed=1.62x    frame=  344 fps= 48 q=28.0 size=       0kB time=00:00:11.77 bitrate=   0.0kbits/s speed=1.63x    frame=  369 fps= 48 q=28.0 size=       0kB time=00:00:12.76 bitrate=   0.0kbits/s speed=1.65x    frame=  394 fps= 48 q=28.0 size=     256kB time=00:00:13.76 bitrate= 152.4kbits/s speed=1.67x    frame=  417 fps= 48 q=28.0 size=     256kB time=00:00:14.68 bitrate= 142.9kbits/s speed=1.68x    frame=  437 fps= 47 q=28.0 size=     256kB time=00:00:15.48 bitrate= 135.5kbits/s speed=1.68x    [mp3float @ 0x5f34f4764b00] overread, skip -6 enddists: -1 -1
frame=  461 fps= 47 q=28.0 size=     256kB time=00:00:16.44 bitrate= 127.6kbits/s speed=1.69x    frame=  485 fps= 47 q=28.0 size=     256kB time=00:00:17.40 bitrate= 120.5kbits/s speed= 1.7x    frame=  509 fps= 47 q=28.0 size=     256kB time=00:00:18.36 bitrate= 114.2kbits/s speed=1.71x    [mp3float @ 0x5f34f4764b00] overread, skip -6 enddists: -1 -1
frame=  534 fps= 47 q=28.0 size=     256kB time=00:00:19.36 bitrate= 108.3kbits/s speed=1.72x    frame=  556 fps= 47 q=28.0 size=     256kB time=00:00:20.24 bitrate= 103.6kbits/s speed=1.72x    frame=  579 fps= 47 q=28.0 size=     256kB time=00:00:21.16 bitrate=  99.1kbits/s speed=1.72x    frame=  600 fps= 47 q=28.0 size=     256kB time=00:00:22.00 bitrate=  95.3kbits/s speed=1.72x    frame=  612 fps= 46 q=28.0 size=     256kB time=00:00:22.48 bitrate=  93.3kbits/s speed=1.69x    frame=  631 fps= 46 q=28.0 size=     256kB time=00:00:23.24 bitrate=  90.3kbits/s speed=1.68x    frame=  648 fps= 45 q=28.0 size=     256kB time=00:00:23.92 bitrate=  87.7kbits/s speed=1.66x    frame=  670 fps= 45 q=28.0 size=     256kB time=00:00:24.83 bitrate=  84.5kbits/s speed=1.67x    frame=  693 fps= 45 q=28.0 size=     256kB time=00:00:25.72 bitrate=  81.6kbits/s speed=1.67x    frame=  715 fps= 45 q=28.0 size=     256kB time=00:00:26.60 bitrate=  78.9kbits/s speed=1.67x    frame=  734 fps= 45 q=28.0 size=     512kB time=00:00:27.36 bitrate= 153.3kbits/s speed=1.66x    frame=  745 fps= 44 q=28.0 size=     512kB time=00:00:27.80 bitrate= 150.9kbits/s speed=1.64x    frame=  764 fps= 44 q=28.0 size=     512kB time=00:00:28.56 bitrate= 146.9kbits/s speed=1.63x    frame=  787 fps= 44 q=28.0 size=     512kB time=00:00:29.48 bitrate= 142.3kbits/s speed=1.64x    frame=  807 fps= 44 q=28.0 size=     512kB time=00:00:30.28 bitrate= 138.5kbits/s speed=1.64x    frame=  829 fps= 44 q=28.0 size=     512kB time=00:00:31.18 bitrate= 134.5kbits/s speed=1.64x    frame=  851 fps= 44 q=28.0 size=     512kB time=00:00:32.04 bitrate= 130.9kbits/s speed=1.64x    frame=  874 fps= 44 q=28.0 size=     512kB time=00:00:32.96 bitrate= 127.3kbits/s speed=1.65x    frame=  896 fps= 44 q=28.0 size=     512kB time=00:00:33.87 bitrate= 123.8kbits/s speed=1.65x    [mp3float @ 0x5f34f4764b00] overread, skip -7 enddists: -5 -5
frame=  919 fps= 44 q=28.0 size=     512kB time=00:00:34.76 bitrate= 120.7kbits/s speed=1.65x    frame=  942 fps= 44 q=28.0 size=     512kB time=00:00:35.68 bitrate= 117.6kbits/s speed=1.65x    frame=  957 fps= 43 q=28.0 size=     512kB time=00:00:36.28 bitrate= 115.6kbits/s speed=1.64x    frame=  976 fps= 43 q=28.0 size=     512kB time=00:00:37.04 bitrate= 113.2kbits/s speed=1.64x    frame=  991 fps= 43 q=28.0 size=     512kB time=00:00:37.64 bitrate= 111.4kbits/s speed=1.63x    frame= 1014 fps= 43 q=28.0 size=     512kB time=00:00:38.56 bitrate= 108.8kbits/s speed=1.63x    frame= 1033 fps= 43 q=28.0 size=     512kB time=00:00:39.32 bitrate= 106.7kbits/s speed=1.63x    frame= 1054 fps= 43 q=28.0 size=     512kB time=00:00:40.19 bitrate= 104.4kbits/s speed=1.63x    frame= 1078 fps= 43 q=28.0 size=     768kB time=00:00:41.12 bitrate= 153.0kbits/s speed=1.64x    frame= 1102 fps= 43 q=28.0 size=     768kB time=00:00:42.08 bitrate= 149.5kbits/s speed=1.64x    frame= 1123 fps= 43 q=28.0 size=     768kB time=00:00:42.92 bitrate= 146.6kbits/s speed=1.64x    frame= 1147 fps= 43 q=28.0 size=     768kB time=00:00:43.88 bitrate= 143.4kbits/s speed=1.64x    frame= 1172 fps= 43 q=28.0 size=     768kB time=00:00:44.88 bitrate= 140.2kbits/s speed=1.65x    frame= 1197 fps= 43 q=28.0 size=     768kB time=00:00:45.88 bitrate= 137.1kbits/s speed=1.66x    frame= 1220 fps= 43 q=28.0 size=     768kB time=00:00:46.80 bitrate= 134.4kbits/s speed=1.66x    frame= 1245 fps= 43 q=28.0 size=     768kB time=00:00:47.80 bitrate= 131.6kbits/s speed=1.66x    frame= 1252 fps= 43 q=-1.0 Lsize=     976kB time=00:00:50.04 bitrate= 159.8kbits/s speed=1.71x    
video:218kB audio:726kB subtitle:0kB other streams:0kB global headers:0kB muxing overhead: 3.350622%
[libx264 @ 0x5f34f4c299c0] frame I:6     Avg QP:12.73  size: 20637
[libx264 @ 0x5f34f4c299c0] frame P:316   Avg QP: 6.45  size:    83
[libx264 @ 0x5f34f4c299c0] frame B:930   Avg QP: 9.67  size:    78
[libx264 @ 0x5f34f4c299c0] consecutive B-frames:  1.0%  0.0%  0.0% 99.0%
[libx264 @ 0x5f34f4c299c0] mb I  I16..4: 54.2% 37.9%  7.9%
[libx264 @ 0x5f34f4c299c0] mb P  I16..4:  0.0%  0.0%  0.0%  P16..4:  0.0%  0.0%  0.0%  0.0%  0.0%    skip:100.0%
[libx264 @ 0x5f34f4c299c0] mb B  I16..4:  0.0%  0.0%  0.0%  B16..8:  0.1%  0.0%  0.0%  direct: 0.0%  skip:99.9%  L0:72.7% L1:27.3% BI: 0.0%
[libx264 @ 0x5f34f4c299c0] 8x8 transform intra:37.9% inter:10.2%
[libx264 @ 0x5f34f4c299c0] coded y,uvDC,uvAC intra: 4.6% 0.0% 0.0% inter: 0.0% 0.0% 0.0%
[libx264 @ 0x5f34f4c299c0] i16 v,h,dc,p: 95%  2%  3%  0%
[libx264 @ 0x5f34f4c299c0] i8 v,h,dc,ddl,ddr,vr,hd,vl,hu: 78%  3% 19%  0%  0%  0%  0%  0%  0%
[libx264 @ 0x5f34f4c299c0] i4 v,h,dc,ddl,ddr,vr,hd,vl,hu: 50% 19% 15%  3%  2%  3%  3%  3%  3%
[libx264 @ 0x5f34f4c299c0] i8c dc,h,v,p: 100%  0%  0%  0%
[libx264 @ 0x5f34f4c299c0] Weighted P-Frames: Y:0.0% UV:0.0%
[libx264 @ 0x5f34f4c299c0] ref P L0: 94.8%  2.1%  3.1%
[libx264 @ 0x5f34f4c299c0] ref B L0: 34.3% 65.7%
[libx264 @ 0x5f34f4c299c0] ref B L1: 99.0%  1.0%
[libx264 @ 0x5f34f4c299c0] kb/s:35.58
[aac @ 0x5f34f4c2ad00] Qavg: 65532.473
ffmpeg version 4.4.2-0ubuntu0.22.04.1 Copyright (c) 2000-2021 the FFmpeg developers
  built with gcc 11 (Ubuntu 11.2.0-19ubuntu1)
  configuration: --prefix=/usr --extra-version=0ubuntu0.22.04.1 --toolchain=hardened --libdir=/usr/lib/x86_64-linux-gnu --incdir=/usr/include/x86_64-linux-gnu --arch=amd64 --enable-gpl --disable-stripping --enable-gnutls --enable-ladspa --enable-libaom --enable-libass --enable-libbluray --enable-libbs2b --enable-libcaca --enable-libcdio --enable-libcodec2 --enable-libdav1d --enable-libflite --enable-libfontconfig --enable-libfreetype --enable-libfribidi --enable-libgme --enable-libgsm --enable-libjack --enable-libmp3lame --enable-libmysofa --enable-libopenjpeg --enable-libopenmpt --enable-libopus --enable-libpulse --enable-librabbitmq --enable-librubberband --enable-libshine --enable-libsnappy --enable-libsoxr --enable-libspeex --enable-libsrt --enable-libssh --enable-libtheora --enable-libtwolame --enable-libvidstab --enable-libvorbis --enable-libvpx --enable-libwebp --enable-libx265 --enable-libxml2 --enable-libxvid --enable-libzimg --enable-libzmq --enable-libzvbi --enable-lv2 --enable-omx --enable-openal --enable-opencl --enable-opengl --enable-sdl2 --enable-pocketsphinx --enable-librsvg --enable-libmfx --enable-libdc1394 --enable-libdrm --enable-libiec61883 --enable-chromaprint --enable-frei0r --enable-libx264 --enable-shared
  libavutil      56. 70.100 / 56. 70.100
  libavcodec     58.134.100 / 58.134.100
  libavformat    58. 76.100 / 58. 76.100
  libavdevice    58. 13.100 / 58. 13.100
  libavfilter     7.110.100 /  7.110.100
  libswscale      5.  9.100 /  5.  9.100
  libswresample   3.  9.100 /  3.  9.100
  libpostproc    55.  9.100 / 55.  9.100
Input #0, lavfi, from 'anullsrc=channel_layout=stereo:sample_rate=44100':
  Duration: N/A, start: 0.000000, bitrate: 705 kb/s
  Stream #0:0: Audio: pcm_u8, 44100 Hz, stereo, u8, 705 kb/s
Input #1, png_pipe, from 'visuals/slide_title.png':
  Duration: N/A, bitrate: N/A
  Stream #1:0: Video: png, rgb24(pc), 1920x1080, 25 fps, 25 tbr, 25 tbn, 25 tbc
Stream mapping:
  Stream #1:0 -> #0:0 (png (native) -> h264 (libx264))
  Stream #0:0 -> #0:1 (pcm_u8 (native) -> aac (native))
[libx264 @ 0x59a54e6128c0] using cpu capabilities: MMX2 SSE2Fast SSSE3 SSE4.2 AVX FMA3 BMI2 AVX2
[libx264 @ 0x59a54e6128c0] profile High, level 4.0, 4:2:0, 8-bit
[libx264 @ 0x59a54e6128c0] 264 - core 163 r3060 5db6aa6 - H.264/MPEG-4 AVC codec - Copyleft 2003-2021 - http://www.videolan.org/x264.html - options: cabac=1 ref=3 deblock=1:-3:-3 analyse=0x3:0x113 me=hex subme=7 psy=1 psy_rd=2.00:0.70 mixed_ref=1 me_range=16 chroma_me=1 trellis=1 8x8dct=1 cqm=0 deadzone=21,11 fast_pskip=1 chroma_qp_offset=-4 threads=3 lookahead_threads=1 sliced_threads=0 nr=0 decimate=1 interlaced=0 bluray_compat=0 constrained_intra=0 bframes=3 b_pyramid=2 b_adapt=1 b_bias=0 direct=1 weightb=1 open_gop=0 weightp=2 keyint=250 keyint_min=25 scenecut=40 intra_refresh=0 rc_lookahead=40 rc=crf mbtree=1 crf=23.0 qcomp=0.60 qpmin=0 qpmax=69 qpstep=4 ip_ratio=1.40 aq=1:1.20
Output #0, mp4, to 'seg7.mp4':
  Metadata:
    encoder         : Lavf58.76.100
  Stream #0:0: Video: h264 (avc1 / 0x31637661), yuv420p(tv, progressive), 1920x1080, q=2-31, 25 fps, 12800 tbn
    Metadata:
      encoder         : Lavc58.134.100 libx264
    Side data:
      cpb: bitrate max/min/avg: 0/0/0 buffer size: 0 vbv_delay: N/A
  Stream #0:1: Audio: aac (LC) (mp4a / 0x6134706D), 44100 Hz, stereo, fltp, 192 kb/s
    Metadata:
      encoder         : Lavc58.134.100 aac
frame=    1 fps=0.0 q=0.0 size=       0kB time=00:00:00.00 bitrate=N/A speed=   0x    frame=   38 fps=0.0 q=0.0 size=       0kB time=00:00:00.00 bitrate=N/A speed=   0x    frame=   56 fps= 52 q=28.0 size=       0kB time=00:00:00.24 bitrate=   1.6kbits/s speed=0.221x    frame=   80 fps= 50 q=28.0 size=       0kB time=00:00:01.20 bitrate=   0.3kbits/s speed=0.754x    frame=  103 fps= 49 q=28.0 size=       0kB time=00:00:02.12 bitrate=   0.2kbits/s speed=1.01x    frame=  125 fps= 48 q=28.0 size=       0kB time=00:00:04.31 bitrate=   0.1kbits/s speed=1.66x    frame=  125 fps= 43 q=-1.0 Lsize=      33kB time=00:00:04.99 bitrate=  54.1kbits/s speed=1.73x    
video:26kB audio:1kB subtitle:0kB other streams:0kB global headers:0kB muxing overhead: 19.949505%
[libx264 @ 0x59a54e6128c0] frame I:1     Avg QP: 7.77  size: 16315
[libx264 @ 0x59a54e6128c0] frame P:31    Avg QP: 6.63  size:    89
[libx264 @ 0x59a54e6128c0] frame B:93    Avg QP: 9.67  size:    76
[libx264 @ 0x59a54e6128c0] consecutive B-frames:  0.8%  0.0%  0.0% 99.2%
[libx264 @ 0x59a54e6128c0] mb I  I16..4: 49.8% 43.6%  6.6%
[libx264 @ 0x59a54e6128c0] mb P  I16..4:  0.0%  0.0%  0.0%  P16..4:  0.0%  0.0%  0.0%  0.0%  0.0%    skip:100.0%
[libx264 @ 0x59a54e6128c0] mb B  I16..4:  0.0%  0.0%  0.0%  B16..8:  0.0%  0.0%  0.0%  direct: 0.0%  skip:100.0%  L0:66.5% L1:33.5% BI: 0.0%
[libx264 @ 0x59a54e6128c0] 8x8 transform intra:43.6% inter:10.6%
[libx264 @ 0x59a54e6128c0] coded y,uvDC,uvAC intra: 3.7% 0.0% 0.0% inter: 0.0% 0.0% 0.0%
[libx264 @ 0x59a54e6128c0] i16 v,h,dc,p: 96%  1%  3%  0%
[libx264 @ 0x59a54e6128c0] i8 v,h,dc,ddl,ddr,vr,hd,vl,hu: 88%  3%  9%  0%  0%  0%  0%  0%  0%
[libx264 @ 0x59a54e6128c0] i4 v,h,dc,ddl,ddr,vr,hd,vl,hu: 50% 22% 13%  2%  2%  3%  3%  2%  3%
[libx264 @ 0x59a54e6128c0] i8c dc,h,v,p: 100%  0%  0%  0%
[libx264 @ 0x59a54e6128c0] Weighted P-Frames: Y:0.0% UV:0.0%
[libx264 @ 0x59a54e6128c0] ref P L0: 98.0%  0.0%  2.0%
[libx264 @ 0x59a54e6128c0] ref B L0: 39.4% 60.6%
[libx264 @ 0x59a54e6128c0] ref B L1: 97.6%  2.4%
[libx264 @ 0x59a54e6128c0] kb/s:41.78
[aac @ 0x59a54e1f3b80] Qavg: 65536.000
ffmpeg version 4.4.2-0ubuntu0.22.04.1 Copyright (c) 2000-2021 the FFmpeg developers
  built with gcc 11 (Ubuntu 11.2.0-19ubuntu1)
  configuration: --prefix=/usr --extra-version=0ubuntu0.22.04.1 --toolchain=hardened --libdir=/usr/lib/x86_64-linux-gnu --incdir=/usr/include/x86_64-linux-gnu --arch=amd64 --enable-gpl --disable-stripping --enable-gnutls --enable-ladspa --enable-libaom --enable-libass --enable-libbluray --enable-libbs2b --enable-libcaca --enable-libcdio --enable-libcodec2 --enable-libdav1d --enable-libflite --enable-libfontconfig --enable-libfreetype --enable-libfribidi --enable-libgme --enable-libgsm --enable-libjack --enable-libmp3lame --enable-libmysofa --enable-libopenjpeg --enable-libopenmpt --enable-libopus --enable-libpulse --enable-librabbitmq --enable-librubberband --enable-libshine --enable-libsnappy --enable-libsoxr --enable-libspeex --enable-libsrt --enable-libssh --enable-libtheora --enable-libtwolame --enable-libvidstab --enable-libvorbis --enable-libvpx --enable-libwebp --enable-libx265 --enable-libxml2 --enable-libxvid --enable-libzimg --enable-libzmq --enable-libzvbi --enable-lv2 --enable-omx --enable-openal --enable-opencl --enable-opengl --enable-sdl2 --enable-pocketsphinx --enable-librsvg --enable-libmfx --enable-libdc1394 --enable-libdrm --enable-libiec61883 --enable-chromaprint --enable-frei0r --enable-libx264 --enable-shared
  libavutil      56. 70.100 / 56. 70.100
  libavcodec     58.134.100 / 58.134.100
  libavformat    58. 76.100 / 58. 76.100
  libavdevice    58. 13.100 / 58. 13.100
  libavfilter     7.110.100 /  7.110.100
  libswscale      5.  9.100 /  5.  9.100
  libswresample   3.  9.100 /  3.  9.100
  libpostproc    55.  9.100 / 55.  9.100
[mov,mp4,m4a,3gp,3g2,mj2 @ 0x5c622f43a000] Auto-inserting h264_mp4toannexb bitstream filter
Input #0, concat, from 'list.txt':
  Duration: N/A, start: -0.042667, bitrate: 156 kb/s
  Stream #0:0(und): Video: h264 (High) (avc1 / 0x31637661), yuv420p, 1920x1080 [SAR 1:1 DAR 16:9], 39 kb/s, 25 fps, 25 tbr, 12800 tbn, 50 tbc
    Metadata:
      handler_name    : VideoHandler
      vendor_id       : [0][0][0][0]
  Stream #0:1(und): Audio: aac (LC) (mp4a / 0x6134706D), 24000 Hz, mono, fltp, 117 kb/s
    Metadata:
      handler_name    : SoundHandler
      vendor_id       : [0][0][0][0]
Output #0, mp4, to 'final_temperature.mp4':
  Metadata:
    encoder         : Lavf58.76.100
  Stream #0:0(und): Video: h264 (High) (avc1 / 0x31637661), yuv420p, 1920x1080 [SAR 1:1 DAR 16:9], q=2-31, 39 kb/s, 25 fps, 25 tbr, 12800 tbn, 12800 tbc
    Metadata:
      handler_name    : VideoHandler
      vendor_id       : [0][0][0][0]
  Stream #0:1(und): Audio: aac (LC) (mp4a / 0x6134706D), 24000 Hz, mono, fltp, 117 kb/s
    Metadata:
      handler_name    : SoundHandler
      vendor_id       : [0][0][0][0]
Stream mapping:
  Stream #0:0 -> #0:0 (copy)
  Stream #0:1 -> #0:1 (copy)
frame=    1 fps=0.0 q=-1.0 size=       0kB time=00:00:00.00 bitrate=N/A speed=N/A    [mov,mp4,m4a,3gp,3g2,mj2 @ 0x5c622f543c40] Auto-inserting h264_mp4toannexb bitstream filter
[mp4 @ 0x5c622f478a80] Non-monotonous DTS in output stream 0:1; previous: 1209344, current: 1208640; changing to 1209345. This may result in incorrect timestamps in the output file.
[mov,mp4,m4a,3gp,3g2,mj2 @ 0x5c622f513b00] Auto-inserting h264_mp4toannexb bitstream filter
[mov,mp4,m4a,3gp,3g2,mj2 @ 0x5c622f543c40] Auto-inserting h264_mp4toannexb bitstream filter
[mp4 @ 0x5c622f478a80] Non-monotonous DTS in output stream 0:1; previous: 3321216, current: 3320640; changing to 3321217. This may result in incorrect timestamps in the output file.
[mov,mp4,m4a,3gp,3g2,mj2 @ 0x5c622f513b00] Auto-inserting h264_mp4toannexb bitstream filter
[mp4 @ 0x5c622f478a80] Non-monotonous DTS in output stream 0:1; previous: 4497216, current: 4496832; changing to 4497217. This may result in incorrect timestamps in the output file.
[mov,mp4,m4a,3gp,3g2,mj2 @ 0x5c622f543c40] Auto-inserting h264_mp4toannexb bitstream filter
[mov,mp4,m4a,3gp,3g2,mj2 @ 0x5c622f513b00] Auto-inserting h264_mp4toannexb bitstream filter
frame= 6872 fps=0.0 q=-1.0 Lsize=    5449kB time=00:08:25.13 bitrate=  88.4kbits/s speed=3.11e+03x    
video:1429kB audio:3853kB subtitle:0kB other streams:0kB global headers:0kB muxing overhead: 3.162981%
Video assembly complete: final_temperature.mp4
